<?xml version="1.0" encoding="UTF-8"?>
<svg version="1.1" xmlns="http://www.w3.org/2000/svg" width="512" height="512">
<path d="M0 0 C1.86881836 -0.00580078 1.86881836 -0.00580078 3.77539062 -0.01171875 C11.09443741 -0.00403471 18.28870179 0.30190491 25.5625 1.125 C25.5625 1.785 25.5625 2.445 25.5625 3.125 C26.37589844 3.26486328 27.18929687 3.40472656 28.02734375 3.54882812 C76.32020917 11.99600537 117.63752394 30.83868689 151.94458008 66.58056641 C152.49138428 67.14437012 153.03818848 67.70817383 153.6015625 68.2890625 C154.07803223 68.78873535 154.55450195 69.2884082 155.04541016 69.80322266 C156.55626942 71.23750484 156.55626942 71.23750484 158.68505859 72.14599609 C161.33869644 73.52975263 161.47769089 75.41297722 162.5625 78.125 C164.57985205 79.46910262 164.57985205 79.46910262 166.5625 80.125 C166.5625 81.115 166.5625 82.105 166.5625 83.125 C167.5525 83.455 168.5425 83.785 169.5625 84.125 C171.147289 86.32852798 172.58937916 88.50228456 174 90.8125 C174.76906795 92.04586193 175.5385956 93.27893734 176.30859375 94.51171875 C176.68097168 95.11677246 177.05334961 95.72182617 177.43701172 96.34521484 C178.52257617 98.06186665 179.68410192 99.72975352 180.84765625 101.39453125 C182.5625 104.125 182.5625 104.125 182.5625 107.125 C183.2225 107.125 183.8825 107.125 184.5625 107.125 C187.37782819 112.16640164 189.0813509 116.35121075 189.5625 122.125 C190.2225 122.125 190.8825 122.125 191.5625 122.125 C191.8925 124.765 192.2225 127.405 192.5625 130.125 C193.2225 130.125 193.8825 130.125 194.5625 130.125 C196.78491342 134.6664535 197.77144945 138.21058663 198.1796875 143.3046875 C199.04515738 149.68090436 200.92321742 155.91097532 202.5625 162.125 C203.2225 162.125 203.8825 162.125 204.5625 162.125 C205.52477616 171.13051993 205.91757995 180.13948305 206.1875 189.1875 C206.22068832 190.28324341 206.22068832 190.28324341 206.25454712 191.40112305 C206.74472739 208.20756673 205.71717735 224.45991735 203.5625 241.125 C203.4807251 241.82141602 203.3989502 242.51783203 203.31469727 243.23535156 C202.74827191 248.02741032 201.80783834 252.47573687 200.5625 257.125 C199.9025 257.125 199.2425 257.125 198.5625 257.125 C198.2325 260.095 197.9025 263.065 197.5625 266.125 C196.9025 266.125 196.2425 266.125 195.5625 266.125 C195.500625 267.0325 195.43875 267.94 195.375 268.875 C194.41006811 275.69944583 191.66811716 283.39757671 186.5625 288.125 C186.20087971 289.45094105 185.86521961 290.78438457 185.5625 292.125 C184.9025 292.785 184.2425 293.445 183.5625 294.125 C183.418125 294.764375 183.27375 295.40375 183.125 296.0625 C182.45149128 298.53203196 181.38233302 299.38099335 179.5625 301.125 C179.2325 302.115 178.9025 303.105 178.5625 304.125 C177.78387893 305.51946422 176.96831866 306.89368334 176.125 308.25 C175.69316406 308.95382812 175.26132812 309.65765625 174.81640625 310.3828125 C173.5625 312.125 173.5625 312.125 171.5625 313.125 C171.2325 314.115 170.9025 315.105 170.5625 316.125 C169.5725 316.455 168.5825 316.785 167.5625 317.125 C167.27375 318.0325 166.985 318.94 166.6875 319.875 C165.35808226 323.71554013 163.47693423 325.35628748 160.5625 328.125 C160.19125 328.8675 159.82 329.61 159.4375 330.375 C159.14875 330.9525 158.86 331.53 158.5625 332.125 C157.5725 332.455 156.5825 332.785 155.5625 333.125 C155.5625 334.115 155.5625 335.105 155.5625 336.125 C154.758125 336.599375 153.95375 337.07375 153.125 337.5625 C150.3899041 338.8279037 150.3899041 338.8279037 150 341.1875 C149.855625 341.826875 149.71125 342.46625 149.5625 343.125 C148.923125 343.434375 148.28375 343.74375 147.625 344.0625 C145.3143736 344.9634237 145.3143736 344.9634237 144.625 347.5625 C143.26493111 350.84266615 141.55192827 351.36200384 138.5625 353.125 C138.21907551 354.45576989 137.88630126 355.78931979 137.5625 357.125 C135.25 359.125 135.25 359.125 132.5625 361.125 C130.39683825 363.1050336 128.81396237 364.59064246 127.5625 367.25 C126.28191052 369.65110528 124.97119162 369.95714952 122.5625 371.125 C120.50308215 373.48951679 119.5637505 375.1212485 118.5625 378.125 C117.9025 378.434375 117.2425 378.74375 116.5625 379.0625 C115.9025 379.413125 115.2425 379.76375 114.5625 380.125 C114.418125 380.764375 114.27375 381.40375 114.125 382.0625 C113.5625 384.125 113.5625 384.125 111.1875 385.625 C110.32125 386.12 109.455 386.615 108.5625 387.125 C106.47567931 389.50993793 105.57398698 391.09053905 104.5625 394.125 C103.23782254 394.8087045 101.90386367 395.47464186 100.5625 396.125 C98.46017656 398.9934413 98.46017656 398.9934413 97.5625 402.125 C96.23782254 402.8087045 94.90386367 403.47464186 93.5625 404.125 C91.59006333 406.88249108 91.59006333 406.88249108 90.6875 409.1875 C89.30104738 411.57527951 88.01778845 411.97408354 85.5625 413.125 C83.59006333 415.88249108 83.59006333 415.88249108 82.6875 418.1875 C81.29400507 420.58740794 80.01987207 420.93354687 77.5625 422.125 C75.50308215 424.48951679 74.5637505 426.1212485 73.5625 429.125 C72.23782254 429.8087045 70.90386367 430.47464186 69.5625 431.125 C67.59006333 433.88249108 67.59006333 433.88249108 66.6875 436.1875 C65.30104738 438.57527951 64.01778845 438.97408354 61.5625 440.125 C59.62451737 442.89760299 59.62451737 442.89760299 58.5625 445.125 C57.0775 446.300625 57.0775 446.300625 55.5625 447.5 C52.52105849 450.16126132 52.30744647 450.52442539 51.5625 454.125 C50.6034375 454.5890625 50.6034375 454.5890625 49.625 455.0625 C47.30717036 455.97148957 47.30717036 455.97148957 46.5625 458.625 C45.32757737 461.71230657 44.47082622 461.7563759 41.5625 463.125 C39.16061312 465.80138824 37.70364607 467.7015618 36.5625 471.125 C35.6034375 471.558125 35.6034375 471.558125 34.625 472 C32.33267432 472.96456564 32.33267432 472.96456564 31.625 475.5 C30.28186281 478.81833894 28.3571663 479.95913362 25.5625 482.125 C25.2325 482.785 24.9025 483.445 24.5625 484.125 C23.14519973 486.95960055 21.08537976 488.21882418 18.5625 490.125 C17.3470895 491.13739688 16.13904881 492.15868971 14.9375 493.1875 C14.36773437 493.67347656 13.79796875 494.15945313 13.2109375 494.66015625 C11.53572074 496.10532732 11.53572074 496.10532732 10.02734375 497.75390625 C7.69121194 499.94052562 5.70365273 500.00181754 2.5625 500.125 C-0.5 498.875 -0.5 498.875 -3.4375 497.125 C-4.79875 496.4134375 -4.79875 496.4134375 -6.1875 495.6875 C-8.68335905 493.95426455 -9.20670928 492.83273958 -10.4375 490.125 C-12.66198243 487.68524508 -14.67620548 485.96586301 -17.4375 484.125 C-17.77083333 482.79166667 -18.10416667 481.45833333 -18.4375 480.125 C-19.4275 479.465 -20.4175 478.805 -21.4375 478.125 C-22.0975 478.455 -22.7575 478.785 -23.4375 479.125 C-23.685 478.031875 -23.9325 476.93875 -24.1875 475.8125 C-25.73092996 471.25938162 -27.31690696 470.18529652 -31.4375 468.125 C-31.56125 467.50625 -31.685 466.8875 -31.8125 466.25 C-32.64137923 463.4318106 -34.10227525 462.82334527 -36.4375 461.125 C-37.10416667 459.79166667 -37.77083333 458.45833333 -38.4375 457.125 C-40.34086809 455.46829588 -40.34086809 455.46829588 -42.4375 454.125 C-45.4375 452.125 -45.4375 452.125 -45.875 450.1875 C-46.64567183 447.36170328 -47.99095953 446.63609852 -50.4375 445.125 C-51.4275 444.795 -52.4175 444.465 -53.4375 444.125 C-53.746875 443.135 -54.05625 442.145 -54.375 441.125 C-54.725625 440.135 -55.07625 439.145 -55.4375 438.125 C-56.0975 437.96 -56.7575 437.795 -57.4375 437.625 C-58.0975 437.46 -58.7575 437.295 -59.4375 437.125 C-60.10416667 435.125 -60.77083333 433.125 -61.4375 431.125 C-63.96563918 428.79133306 -66.57597687 427.03268209 -69.4375 425.125 C-69.581875 424.485625 -69.72625 423.84625 -69.875 423.1875 C-70.6439118 420.36815672 -72.02828547 419.68390352 -74.4375 418.125 C-75.4275 417.465 -76.4175 416.805 -77.4375 416.125 C-77.56125 415.50625 -77.685 414.8875 -77.8125 414.25 C-78.9981395 410.2188257 -83.08875316 408.35749789 -86.4375 406.125 C-86.56125 405.50625 -86.685 404.8875 -86.8125 404.25 C-87.9981395 400.2188257 -92.08875316 398.35749789 -95.4375 396.125 C-95.4375 395.135 -95.4375 394.145 -95.4375 393.125 C-96.76017727 392.11094743 -98.09474831 391.11231742 -99.4375 390.125 C-99.72625 389.50625 -100.015 388.8875 -100.3125 388.25 C-102.49354919 384.13024042 -106.6322112 381.6618592 -110.4375 379.125 C-110.581875 378.485625 -110.72625 377.84625 -110.875 377.1875 C-111.6579258 374.31677205 -112.98415189 373.8036066 -115.4375 372.125 C-119.02544665 369.26998307 -122.35273414 366.37836567 -125.25 362.8125 C-127.15619511 360.09424803 -127.15619511 360.09424803 -129.4375 359.125 C-129.55222656 358.38636719 -129.66695313 357.64773438 -129.78515625 356.88671875 C-130.63914322 353.27133679 -132.33825019 351.62036659 -134.875 348.9375 C-136.07962891 347.64779297 -136.07962891 347.64779297 -137.30859375 346.33203125 C-138.67272232 344.91784291 -140.04811607 343.51438393 -141.4375 342.125 C-141.9325 341.609375 -142.4275 341.09375 -142.9375 340.5625 C-144.39685935 339.02199698 -144.39685935 339.02199698 -146.4375 338.125 C-146.581875 337.465 -146.72625 336.805 -146.875 336.125 C-147.060625 335.465 -147.24625 334.805 -147.4375 334.125 C-148.4275 333.795 -149.4175 333.465 -150.4375 333.125 C-151.125 331.0625 -151.125 331.0625 -151.4375 329.125 C-152.0975 329.125 -152.7575 329.125 -153.4375 329.125 C-153.7675 327.805 -154.0975 326.485 -154.4375 325.125 C-155.7575 325.125 -157.0775 325.125 -158.4375 325.125 C-158.210625 324.526875 -157.98375 323.92875 -157.75 323.3125 C-157.646875 322.590625 -157.54375 321.86875 -157.4375 321.125 C-158.57948761 319.56191955 -158.57948761 319.56191955 -160.4375 318.125 C-165.70309828 313.27510685 -169.71982622 308.11415537 -171.4375 301.125 C-172.18 300.4134375 -172.18 300.4134375 -172.9375 299.6875 C-174.90323078 297.63986377 -175.06418561 295.88752651 -175.4375 293.125 C-176.0975 293.125 -176.7575 293.125 -177.4375 293.125 C-178.25424796 291.37697854 -179.06573451 289.62649811 -179.875 287.875 C-180.32746094 286.90046875 -180.77992188 285.9259375 -181.24609375 284.921875 C-182.4375 282.125 -182.4375 282.125 -182.97265625 279.953125 C-183.41119872 277.80418972 -183.41119872 277.80418972 -185.4375 275.125 C-186.16590032 273.60223103 -186.84971046 272.05772779 -187.5 270.5 C-187.84160156 269.70335937 -188.18320313 268.90671875 -188.53515625 268.0859375 C-189.51546579 264.86916419 -189.83514053 261.87693585 -190.15356445 258.54199219 C-190.63037622 254.48314738 -191.57386718 250.53865326 -192.5 246.5625 C-192.68626953 245.74458984 -192.87253906 244.92667969 -193.06445312 244.08398438 C-193.51770687 242.09664104 -193.97696212 240.11066799 -194.4375 238.125 C-195.0975 238.125 -195.7575 238.125 -196.4375 238.125 C-197.7357126 232.36418159 -198.69456972 227.03760345 -198.4375 221.125 C-199.0975 220.795 -199.7575 220.465 -200.4375 220.125 C-199.4475 220.125 -198.4575 220.125 -197.4375 220.125 C-197.46106567 218.55540527 -197.46106567 218.55540527 -197.48510742 216.95410156 C-198.00199771 179.26413925 -198.00199771 179.26413925 -194.4375 162.125 C-193.51753557 158.14260405 -193.51753557 158.14260405 -193.97851562 154.19628906 C-194.51459877 151.7770713 -194.21305221 150.56813352 -193.44140625 148.234375 C-193.21259766 147.52539062 -192.98378906 146.81640625 -192.74804688 146.0859375 C-192.37776367 144.99152344 -192.37776367 144.99152344 -192 143.875 C-191.75701172 143.12992188 -191.51402344 142.38484375 -191.26367188 141.6171875 C-190.66417019 139.78341765 -190.05205513 137.95377996 -189.4375 136.125 C-188.7775 136.125 -188.1175 136.125 -187.4375 136.125 C-187.47875 135.01125 -187.52 133.8975 -187.5625 132.75 C-187.4375 129.125 -187.4375 129.125 -185.4375 127.125 C-185.07681408 125.79880448 -184.74701676 124.46406246 -184.4375 123.125 C-183.09360129 119.88515224 -181.5649717 116.73147908 -180.0625 113.5625 C-179.66289062 112.69947266 -179.26328125 111.83644531 -178.8515625 110.94726562 C-178.4596875 110.11775391 -178.0678125 109.28824219 -177.6640625 108.43359375 C-177.30908691 107.67876709 -176.95411133 106.92394043 -176.58837891 106.14624023 C-175.0614792 103.46461047 -173.14667613 101.72507211 -170.8125 99.75 C-169.25058168 98.19105696 -169.25058168 98.19105696 -169.09765625 95.9140625 C-168.2470532 92.32039046 -166.5738269 89.92011291 -164.5 86.875 C-163.78972656 85.81796875 -163.07945312 84.7609375 -162.34765625 83.671875 C-160.4375 81.125 -160.4375 81.125 -158.4375 80.125 C-158.1075 79.465 -157.7775 78.805 -157.4375 78.125 C-156.4375 76.125 -156.4375 76.125 -154.4375 75.125 C-154.14875 74.485625 -153.86 73.84625 -153.5625 73.1875 C-152.1865647 70.66495195 -150.98407018 70.31870477 -148.4375 69.125 C-146.46506333 66.36750892 -146.46506333 66.36750892 -145.5625 64.0625 C-144.17478766 61.67255097 -142.86321506 61.33785753 -140.4375 60.125 C-140.128125 59.465 -139.81875 58.805 -139.5 58.125 C-138.4375 56.125 -138.4375 56.125 -136.125 55.25 C-132.33979415 53.66549523 -130.93548462 51.36562869 -128.4375 48.125 C-126.4375 46.125 -126.4375 46.125 -124.69921875 45.28125 C-122.27182331 44.04030172 -120.16084758 42.52272092 -117.97412109 40.90209961 C-89.87411248 20.08772053 -58.70201421 8.93012814 -24.4375 3.125 C-24.4375 2.465 -24.4375 1.805 -24.4375 1.125 C-16.28420989 0.08465867 -8.2113412 -0.025409 0 0 Z M-13.4375 1.125 C-13.4375 1.455 -13.4375 1.785 -13.4375 2.125 C-4.8575 2.125 3.7225 2.125 12.5625 2.125 C12.5625 1.795 12.5625 1.465 12.5625 1.125 C3.9825 1.125 -4.5975 1.125 -13.4375 1.125 Z M-61.4375 70.125 C-62.76285364 70.48876727 -64.09788051 70.81790311 -65.4375 71.125 C-67.33594288 72.05790245 -69.21001117 73.04138419 -71.0625 74.0625 C-72.02414063 74.58714844 -72.98578125 75.11179687 -73.9765625 75.65234375 C-76.50402215 77.02907646 -76.50402215 77.02907646 -78.4375 79.125 C-79.99423709 80.05141981 -81.55793943 80.96615172 -83.125 81.875 C-88.4374673 85.20057635 -92.93418597 89.09031996 -97.5 93.375 C-98.15508545 93.98956055 -98.8101709 94.60412109 -99.48510742 95.23730469 C-102.15988305 97.79112114 -104.37328849 100.02868273 -106.4375 103.125 C-106.1075 103.785 -105.7775 104.445 -105.4375 105.125 C-106.0975 105.125 -106.7575 105.125 -107.4375 105.125 C-108.0975 105.785 -108.7575 106.445 -109.4375 107.125 C-110.0975 107.785 -110.7575 108.445 -111.4375 109.125 C-111.7675 110.115 -112.0975 111.105 -112.4375 112.125 C-113.9225 112.62 -113.9225 112.62 -115.4375 113.125 C-115.7675 114.115 -116.0975 115.105 -116.4375 116.125 C-117.0975 116.785 -117.7575 117.445 -118.4375 118.125 C-120.25602593 120.8527889 -121.23100338 123.1066711 -122.4375 126.125 C-123.74919078 128.8755976 -125.12444789 131.59338536 -126.5 134.3125 C-126.86416016 135.03630859 -127.22832031 135.76011719 -127.60351562 136.50585938 C-128.54654991 138.37972602 -129.49186885 140.2524425 -130.4375 142.125 C-130.9325 143.115 -130.9325 143.115 -131.4375 144.125 C-132.0975 143.795 -132.7575 143.465 -133.4375 143.125 C-133.746875 144.32125 -134.05625 145.5175 -134.375 146.75 C-134.54902344 147.42289062 -134.72304687 148.09578125 -134.90234375 148.7890625 C-135.29818089 150.51687715 -135.61292358 152.26371448 -135.8828125 154.015625 C-136.45604335 157.22894726 -137.32800794 160.1603857 -138.375 163.25 C-138.71402344 164.26320313 -139.05304688 165.27640625 -139.40234375 166.3203125 C-140.4375 169.125 -140.4375 169.125 -141.52734375 171.1328125 C-142.71243848 173.72679667 -142.8599273 176.03898221 -143.0625 178.875 C-143.13726562 179.85984375 -143.21203125 180.8446875 -143.2890625 181.859375 C-143.33804688 182.60703125 -143.38703125 183.3546875 -143.4375 184.125 C-143.7675 184.125 -144.0975 184.125 -144.4375 184.125 C-147.49947746 205.36129529 -144.74902056 226.48164351 -139.4375 247.125 C-138.7775 246.795 -138.1175 246.465 -137.4375 246.125 C-137.39882812 247.01251953 -137.39882812 247.01251953 -137.359375 247.91796875 C-136.98045586 253.1970013 -136.33113339 256.23136661 -132.4375 260.125 C-133.0975 260.455 -133.7575 260.785 -134.4375 261.125 C-133.4475 261.125 -132.4575 261.125 -131.4375 261.125 C-131.14875 262.0325 -130.86 262.94 -130.5625 263.875 C-129.56554594 267.0026777 -129.56554594 267.0026777 -128.3125 269.3125 C-127.4375 271.125 -127.4375 271.125 -127.4375 274.125 C-126.4475 274.455 -125.4575 274.785 -124.4375 275.125 C-123.375 277.375 -123.375 277.375 -122.4375 280.125 C-120.9631711 284.23205909 -118.93449466 287.54597432 -116.4375 291.125 C-115.4475 290.795 -114.4575 290.465 -113.4375 290.125 C-113.7675 291.445 -114.0975 292.765 -114.4375 294.125 C-113.4784375 294.49625 -113.4784375 294.49625 -112.5 294.875 C-110.4375 296.125 -110.4375 296.125 -109.875 298.1875 C-109.730625 298.826875 -109.58625 299.46625 -109.4375 300.125 C-108.4475 300.455 -107.4575 300.785 -106.4375 301.125 C-106.293125 301.74375 -106.14875 302.3625 -106 303 C-105.24278914 305.86057438 -103.88298072 306.568785 -101.4375 308.125 C-100.7775 308.455 -100.1175 308.785 -99.4375 309.125 C-99.334375 309.723125 -99.23125 310.32125 -99.125 310.9375 C-98.1391336 314.07434764 -95.98774847 315.13456217 -93.4375 317.125 C-92.77083333 318.45833333 -92.10416667 319.79166667 -91.4375 321.125 C-88.87652144 323.35764798 -86.26484984 325.24010011 -83.4375 327.125 C-83.334375 327.74375 -83.23125 328.3625 -83.125 329 C-82.56224627 331.49026484 -82.56224627 331.49026484 -79.4375 333.125 C-76.01838149 335.40441234 -76.33631271 335.52974917 -75.4375 339.125 C-74.4475 339.785 -73.4575 340.445 -72.4375 341.125 C-69.07979123 343.36347252 -69.2229035 343.53458399 -68.4375 347.125 C-65.89802505 349.3971618 -63.27261778 351.23492148 -60.4375 353.125 C-60.293125 353.785 -60.14875 354.445 -60 355.125 C-59.814375 355.785 -59.62875 356.445 -59.4375 357.125 C-58.7775 357.455 -58.1175 357.785 -57.4375 358.125 C-56.7775 358.455 -56.1175 358.785 -55.4375 359.125 C-55.293125 359.723125 -55.14875 360.32125 -55 360.9375 C-54.14650932 364.25663043 -51.89305358 365.77858214 -49.4375 368.125 C-47.85523384 369.9864896 -46.30506448 371.86935953 -44.76953125 373.76953125 C-44.32996094 374.21683594 -43.89039063 374.66414063 -43.4375 375.125 C-42.7775 375.125 -42.1175 375.125 -41.4375 375.125 C-41.375625 375.7025 -41.31375 376.28 -41.25 376.875 C-40.09176021 380.08243327 -38.22609442 381.24432004 -35.4375 383.125 C-33.25535432 383.90333534 -33.25535432 383.90333534 -31.4375 384.125 C-31.7675 385.445 -32.0975 386.765 -32.4375 388.125 C-30.47367993 389.63059539 -28.65486634 391.01631683 -26.4375 392.125 C-26.33308594 392.68703125 -26.22867188 393.2490625 -26.12109375 393.828125 C-25.1183966 397.19718742 -22.85024358 399.36323898 -20.5 401.875 C-20.04431641 402.38160156 -19.58863281 402.88820313 -19.11914062 403.41015625 C-17.93843297 404.69285768 -16.69198188 405.91435193 -15.4375 407.125 C-14.7775 407.125 -14.1175 407.125 -13.4375 407.125 C-13.375625 407.681875 -13.31375 408.23875 -13.25 408.8125 C-12.0898629 412.11442866 -9.98190205 413.75407991 -7.4375 416.125 C-2.62406716 420.71455224 -2.62406716 420.71455224 -1.5 423.1875 C0.12771659 426.15568907 2.72621653 427.39856658 5.5625 429.125 C7.7861068 427.1995356 7.7861068 427.1995356 8.5625 424.125 C9.88717746 423.4412955 11.22113633 422.77535814 12.5625 422.125 C13.2225 421.135 13.8825 420.145 14.5625 419.125 C15.243125 418.279375 15.92375 417.43375 16.625 416.5625 C18.56231299 414.29742641 18.56231299 414.29742641 19.5625 412.125 C20.89583333 410.79166667 22.22916667 409.45833333 23.5625 408.125 C23.8925 407.465 24.2225 406.805 24.5625 406.125 C25.2225 405.485625 25.8825 404.84625 26.5625 404.1875 C28.77798272 402.20088833 28.77798272 402.20088833 29.5625 399.125 C30.5215625 398.691875 30.5215625 398.691875 31.5 398.25 C33.81104545 397.27366414 33.81104545 397.27366414 34.5625 394.625 C35.78725032 391.56312421 36.66345595 391.4427473 39.5625 390.125 C41.91377433 387.52180342 42.5625 386.70370074 42.5625 383.125 C43.5525 383.125 44.5425 383.125 45.5625 383.125 C47.63527359 380.81306023 48.57228527 379.09564418 49.5625 376.125 C50.89293486 375.45256763 52.22680265 374.78691752 53.5625 374.125 C55.72148836 372.06736142 55.72148836 372.06736142 57.75 369.6875 C58.44480469 368.90503906 59.13960937 368.12257813 59.85546875 367.31640625 C61.73997955 365.14842442 61.73997955 365.14842442 62.5625 362.125 C64.5625 360.45833333 66.5625 358.79166667 68.5625 357.125 C68.8925 356.135 69.2225 355.145 69.5625 354.125 C71.2084651 352.43788577 72.87487149 350.7704378 74.5625 349.125 C74.8925 348.465 75.2225 347.805 75.5625 347.125 C76.2225 346.485625 76.8825 345.84625 77.5625 345.1875 C79.77798272 343.20088833 79.77798272 343.20088833 80.5625 340.125 C81.88717746 339.4412955 83.22113633 338.77535814 84.5625 338.125 C85.2225 337.135 85.8825 336.145 86.5625 335.125 C86.2325 334.465 85.9025 333.805 85.5625 333.125 C86.42875 333.0321875 86.42875 333.0321875 87.3125 332.9375 C90.49603478 331.78789022 91.66835921 329.86823838 93.5625 327.125 C93.8925 326.135 94.2225 325.145 94.5625 324.125 C95.13871094 323.84269531 95.71492187 323.56039063 96.30859375 323.26953125 C99.43978658 321.67951479 101.2871737 319.41831243 103.625 316.8125 C104.48222656 315.86761719 105.33945312 314.92273438 106.22265625 313.94921875 C109.08419339 310.49530999 111.1437238 307.38132861 112.5625 303.125 C113.89583333 302.45833333 115.22916667 301.79166667 116.5625 301.125 C116.8925 300.135 117.2225 299.145 117.5625 298.125 C118.5418879 297.10480427 119.54145449 296.10350195 120.5625 295.125 C120.8925 294.465 121.2225 293.805 121.5625 293.125 C122.036875 292.67125 122.51125 292.2175 123 291.75 C124.69131258 289.99103492 125.50612893 288.30816688 126.5625 286.125 C127.2225 285.465 127.8825 284.805 128.5625 284.125 C130.55347846 281.13853231 131.50374926 278.52812738 132.5625 275.125 C133.2225 275.125 133.8825 275.125 134.5625 275.125 C134.2325 273.475 133.9025 271.825 133.5625 270.125 C134.5525 269.795 135.5425 269.465 136.5625 269.125 C136.8925 268.135 137.2225 267.145 137.5625 266.125 C137.8925 265.135 138.2225 264.145 138.5625 263.125 C139.5525 262.795 140.5425 262.465 141.5625 262.125 C141.48 261.3 141.3975 260.475 141.3125 259.625 C141.68850993 254.36086099 143.82144284 249.86605716 147.5625 246.125 C149.72713662 239.92505314 149.80647009 233.6173153 149.5625 227.125 C150.2225 227.125 150.8825 227.125 151.5625 227.125 C153.86710302 209.75817008 153.30731361 194.44068584 150.5625 177.125 C149.9025 177.455 149.2425 177.785 148.5625 178.125 C148.57990234 177.12919922 148.57990234 177.12919922 148.59765625 176.11328125 C148.68143409 169.56193213 148.68143409 169.56193213 147.5625 163.125 C146.9025 163.455 146.2425 163.785 145.5625 164.125 C145.624375 163.114375 145.68625 162.10375 145.75 161.0625 C145.53411227 156.52885761 144.50811965 154.17188887 142.5625 150.125 C141.89583333 148.125 141.22916667 146.125 140.5625 144.125 C139.9025 144.125 139.2425 144.125 138.5625 144.125 C137.5625 141.125 136.5625 138.125 135.5625 135.125 C134.985 134.568125 134.4075 134.01125 133.8125 133.4375 C131.21988147 130.77286428 129.55135168 127.94630802 127.7109375 124.734375 C127.33195312 124.20328125 126.95296875 123.6721875 126.5625 123.125 C125.9025 123.125 125.2425 123.125 124.5625 123.125 C124.8925 121.475 125.2225 119.825 125.5625 118.125 C124.923125 117.8775 124.28375 117.63 123.625 117.375 C121.5625 116.125 121.5625 116.125 121 114.0625 C120.855625 113.423125 120.71125 112.78375 120.5625 112.125 C119.5725 111.795 118.5825 111.465 117.5625 111.125 C117.418125 110.50625 117.27375 109.8875 117.125 109.25 C116.37035195 106.39910737 114.90281338 105.82704609 112.5625 104.125 C111.87981862 102.79979497 111.2117959 101.46687818 110.5625 100.125 C107.88607511 97.94009993 107.88607511 97.94009993 105.5625 98.125 C103.9375 96.625 103.9375 96.625 102.5625 95.125 C102.8925 94.465 103.2225 93.805 103.5625 93.125 C102.1058323 91.97704994 100.64711063 90.83170581 99.1875 89.6875 C98.37539063 89.04941406 97.56328125 88.41132812 96.7265625 87.75390625 C94.66851894 86.10276453 94.66851894 86.10276453 92.5625 85.125 C91.08268126 83.98000893 89.60366318 82.833983 88.125 81.6875 C76.42123087 73.21287961 63.72641356 67.19253522 50.0625 62.5625 C48.59550659 62.06073242 48.59550659 62.06073242 47.09887695 61.54882812 C38.94335026 58.92180419 31.10633181 58.0552037 22.5625 58.125 C22.5625 57.465 22.5625 56.805 22.5625 56.125 C-0.14616253 53.28641718 -44.40688754 51.94434987 -61.4375 70.125 Z M23.5625 57.125 C27.5625 58.125 27.5625 58.125 27.5625 58.125 Z M182.5625 108.125 C183.5625 111.125 183.5625 111.125 183.5625 111.125 Z M193.5625 133.125 C194.5625 135.125 194.5625 135.125 194.5625 135.125 Z M194.5625 135.125 C195.5625 137.125 195.5625 137.125 195.5625 137.125 Z M195.5625 138.125 C196.5625 140.125 196.5625 140.125 196.5625 140.125 Z M-189.4375 139.125 C-188.4375 141.125 -188.4375 141.125 -188.4375 141.125 Z M-190.4375 142.125 C-189.4375 144.125 -189.4375 144.125 -189.4375 144.125 Z M-191.4375 145.125 C-190.4375 147.125 -190.4375 147.125 -190.4375 147.125 Z M-192.4375 148.125 C-191.4375 152.125 -191.4375 152.125 -191.4375 152.125 Z M-136.4375 152.125 C-135.4375 154.125 -135.4375 154.125 -135.4375 154.125 Z M-137.4375 154.125 C-136.4375 157.125 -136.4375 157.125 -136.4375 157.125 Z M-138.4375 158.125 C-137.4375 160.125 -137.4375 160.125 -137.4375 160.125 Z M-139.4375 161.125 C-138.4375 163.125 -138.4375 163.125 -138.4375 163.125 Z M-140.4375 164.125 C-139.4375 167.125 -139.4375 167.125 -139.4375 167.125 Z M203.5625 168.125 C203.5625 169.775 203.5625 171.425 203.5625 173.125 C203.8925 173.125 204.2225 173.125 204.5625 173.125 C204.5625 171.475 204.5625 169.825 204.5625 168.125 C204.2325 168.125 203.9025 168.125 203.5625 168.125 Z M148.5625 172.125 C149.5625 176.125 149.5625 176.125 149.5625 176.125 Z M-197.4375 220.125 C-197.4375 222.435 -197.4375 224.745 -197.4375 227.125 C-197.1075 227.125 -196.7775 227.125 -196.4375 227.125 C-196.4375 224.815 -196.4375 222.505 -196.4375 220.125 C-196.7675 220.125 -197.0975 220.125 -197.4375 220.125 Z M-196.4375 227.125 C-196.4375 228.775 -196.4375 230.425 -196.4375 232.125 C-196.1075 232.125 -195.7775 232.125 -195.4375 232.125 C-195.4375 230.475 -195.4375 228.825 -195.4375 227.125 C-195.7675 227.125 -196.0975 227.125 -196.4375 227.125 Z M149.5625 228.125 C150.5625 232.125 150.5625 232.125 150.5625 232.125 Z M201.5625 242.125 C202.5625 245.125 202.5625 245.125 202.5625 245.125 Z M200.5625 246.125 C201.5625 249.125 201.5625 249.125 201.5625 249.125 Z M-138.4375 247.125 C-137.4375 249.125 -137.4375 249.125 -137.4375 249.125 Z M144.5625 249.125 C145.5625 251.125 145.5625 251.125 145.5625 251.125 Z M-137.4375 250.125 C-136.4375 252.125 -136.4375 252.125 -136.4375 252.125 Z M143.5625 252.125 C144.5625 254.125 144.5625 254.125 144.5625 254.125 Z M141.5625 257.125 C142.5625 259.125 142.5625 259.125 142.5625 259.125 Z M196.5625 261.125 C197.5625 263.125 197.5625 263.125 197.5625 263.125 Z M-188.4375 262.125 C-187.4375 264.125 -187.4375 264.125 -187.4375 264.125 Z M-187.4375 265.125 C-186.4375 267.125 -186.4375 267.125 -186.4375 267.125 Z M-186.4375 267.125 C-185.4375 270.125 -185.4375 270.125 -185.4375 270.125 Z M192.5625 271.125 C193.5625 273.125 193.5625 273.125 193.5625 273.125 Z M189.5625 278.125 C190.5625 280.125 190.5625 280.125 190.5625 280.125 Z M188.5625 281.125 C189.5625 283.125 189.5625 283.125 189.5625 283.125 Z M179.5625 297.125 C180.5625 299.125 180.5625 299.125 180.5625 299.125 Z " fill="#FFFFFF" transform="translate(253.4375,5.875)"/>
<path d="M0 0 C3.41589135 2.14486201 3.4554302 3.68695956 4.33984375 7.5 C4.72326422 11.01540562 4.23935632 13.31049708 3.25 16.6875 C2.03668696 20.86608483 1.633064 24.34471726 1.6875 28.6875 C0.6875 31.5625 0.6875 31.5625 -0.3125 33.6875 C-0.9725 33.6875 -1.6325 33.6875 -2.3125 33.6875 C-3.65502168 37.93465304 -4.98491974 42.18565512 -6.3125 46.4375 C-6.6940625 47.6440625 -7.075625 48.850625 -7.46875 50.09375 C-8.01015625 51.83398438 -8.01015625 51.83398438 -8.5625 53.609375 C-8.89765625 54.67768555 -9.2328125 55.74599609 -9.578125 56.84667969 C-10.47935375 59.8439145 -10.47935375 59.8439145 -10.3125 63.6875 C-10.86483783 66.72535804 -11.52728137 68.00967206 -13.3125 70.6875 C-15.7060948 76.28782468 -16.69510799 81.65507517 -17.00390625 87.71875 C-17.10574219 88.3684375 -17.20757812 89.018125 -17.3125 89.6875 C-18.3025 90.1825 -18.3025 90.1825 -19.3125 90.6875 C-21.81194169 96.03034325 -22.42318597 100.82114353 -22.3125 106.6875 C-23.3125 110.125 -23.3125 110.125 -24.3125 112.6875 C-24.9725 112.6875 -25.6325 112.6875 -26.3125 112.6875 C-28.60652151 119.49787637 -30.60262777 125.43430583 -30.3125 132.6875 C-30.83585835 135.09019061 -31.54766666 137.3451979 -32.3125 139.6875 C-32.9725 139.3575 -33.6325 139.0275 -34.3125 138.6875 C-35.15476 141.24736879 -35.98648551 143.80989015 -36.8125 146.375 C-37.05097656 147.09623047 -37.28945313 147.81746094 -37.53515625 148.56054688 C-38.78059178 152.4569809 -39.35883381 155.57151277 -39.3125 159.6875 C-41.4375 161.3125 -41.4375 161.3125 -44.3125 162.6875 C-45.281875 163.265 -46.25125 163.8425 -47.25 164.4375 C-50.94049956 165.94382635 -52.53032734 165.86942896 -56.3125 164.6875 C-64.77766393 159.7079918 -64.77766393 159.7079918 -65.875 155.5625 C-66.0915625 154.634375 -66.0915625 154.634375 -66.3125 153.6875 C-66.9725 153.3575 -67.6325 153.0275 -68.3125 152.6875 C-68.3125 151.6975 -68.3125 150.7075 -68.3125 149.6875 C-68.9725 149.3575 -69.6325 149.0275 -70.3125 148.6875 C-69.9825 146.3775 -69.6525 144.0675 -69.3125 141.6875 C-70.3025 142.0175 -71.2925 142.3475 -72.3125 142.6875 C-73.43848637 140.12542942 -74.56331988 137.56286301 -75.6875 135 C-76.00460938 134.27876953 -76.32171875 133.55753906 -76.6484375 132.81445312 C-77.90124176 129.95649341 -79.14730664 127.10441657 -80.296875 124.203125 C-81.80977436 120.45578966 -83.49345285 116.7933363 -85.1875 113.125 C-85.52652344 112.37025391 -85.86554688 111.61550781 -86.21484375 110.83789062 C-89.7473639 103.21543744 -93.85783362 99.48470442 -101.85986328 96.53076172 C-103.01204346 96.11334717 -103.01204346 96.11334717 -104.1875 95.6875 C-104.99815918 95.3898877 -105.80881836 95.09227539 -106.64404297 94.78564453 C-111.97354411 92.84630646 -117.32964623 90.99309239 -122.703125 89.1796875 C-123.99365422 88.74219302 -125.28418155 88.304693 -126.57470703 87.8671875 C-129.10376195 87.010404 -131.63598676 86.16629567 -134.17138672 85.328125 C-140.99569673 83.02393319 -147.15978491 80.43146208 -153.3125 76.6875 C-153.9725 76.3575 -154.6325 76.0275 -155.3125 75.6875 C-155.44754138 73.75190687 -155.54451129 71.813628 -155.625 69.875 C-155.68300781 68.79605469 -155.74101562 67.71710938 -155.80078125 66.60546875 C-155.3125 63.6875 -155.3125 63.6875 -153.21484375 62.01953125 C-152.25707031 61.57996094 -151.29929688 61.14039063 -150.3125 60.6875 C-149.28640625 60.1409375 -148.2603125 59.594375 -147.203125 59.03125 C-128.71430423 49.58663232 -109.47135729 41.65703658 -90.3125 33.6875 C-90.3125 33.0275 -90.3125 32.3675 -90.3125 31.6875 C-89.68601562 31.48253906 -89.05953125 31.27757812 -88.4140625 31.06640625 C-87.59679687 30.79699219 -86.77953125 30.52757812 -85.9375 30.25 C-84.71933594 29.84974609 -84.71933594 29.84974609 -83.4765625 29.44140625 C-81.30218201 28.73570271 -81.30218201 28.73570271 -79.3125 27.6875 C-77.59103109 27.11367703 -75.86117871 26.56164309 -74.11328125 26.07421875 C-68.45339168 24.48376313 -63.49200509 22.46908607 -58.3125 19.6875 C-58.3125 19.0275 -58.3125 18.3675 -58.3125 17.6875 C-56.3125 16.0625 -56.3125 16.0625 -54.3125 14.6875 C-54.3125 15.6775 -54.3125 16.6675 -54.3125 17.6875 C-45.25175379 14.20157804 -36.43917691 10.18935434 -27.60595703 6.17285156 C-25.70196534 5.30805232 -23.79637674 4.44684966 -21.890625 3.5859375 C-20.77075195 3.07724121 -19.65087891 2.56854492 -18.49707031 2.04443359 C-11.96185925 -0.74019559 -6.86555626 -2.72031475 0 0 Z M-0.3125 25.6875 C0.6875 27.6875 0.6875 27.6875 0.6875 27.6875 Z M-1.3125 28.6875 C-0.3125 30.6875 -0.3125 30.6875 -0.3125 30.6875 Z M-24.3125 102.6875 C-23.3125 105.6875 -23.3125 105.6875 -23.3125 105.6875 Z M-86.3125 106.6875 C-85.3125 108.6875 -85.3125 108.6875 -85.3125 108.6875 Z M-32.3125 129.6875 C-31.3125 131.6875 -31.3125 131.6875 -31.3125 131.6875 Z M-33.3125 131.6875 C-32.3125 135.6875 -32.3125 135.6875 -32.3125 135.6875 Z " fill="#FFFFFF" transform="translate(320.3125,140.3125)"/>
<path d="M0 0 C0.33 0 0.66 0 1 0 C1 12.21 1 24.42 1 37 C0.67 37 0.34 37 0 37 C0 29.08 0 21.16 0 13 C-0.66 12.67 -1.32 12.34 -2 12 C-1.34 12 -0.68 12 0 12 C0 9.03 0 6.06 0 3 C-0.66 2.67 -1.32 2.34 -2 2 C-1.34 2 -0.68 2 0 2 C0 1.34 0 0.68 0 0 Z " fill="#FFFFFF" transform="translate(54,188)"/>
<path d="M0 0 C1.59134766 0.00676758 1.59134766 0.00676758 3.21484375 0.01367188 C5.80995598 0.02536157 8.40494709 0.04174724 11 0.0625 C11 0.3925 11 0.7225 11 1.0625 C-4.345 1.5575 -4.345 1.5575 -20 2.0625 C-20 1.7325 -20 1.4025 -20 1.0625 C-13.30139078 0.03999595 -6.7684802 -0.05506273 0 0 Z " fill="#FFFFFF" transform="translate(256,61.9375)"/>
<path d="M0 0 C0.33 0 0.66 0 1 0 C1 6.93 1 13.86 1 21 C0.67 21 0.34 21 0 21 C0 14.07 0 7.14 0 0 Z " fill="#FFFFFF" transform="translate(109,199)"/>
<path d="M0 0 C0.33 0 0.66 0 1 0 C1 6.27 1 12.54 1 19 C0.67 19 0.34 19 0 19 C0 12.73 0 6.46 0 0 Z " fill="#FFFFFF" transform="translate(460,186)"/>
<path d="M0 0 C0.33 0 0.66 0 1 0 C1 5.94 1 11.88 1 18 C0.67 18 0.34 18 0 18 C0 12.06 0 6.12 0 0 Z " fill="#FFFFFF" transform="translate(460,212)"/>
<path d="M0 0 C3.36591866 1.44253657 5.51047079 3.33264727 8 6 C7.67 6.66 7.34 7.32 7 8 C5.83035398 6.8572081 4.66435444 5.71068285 3.5 4.5625 C2.8503125 3.92441406 2.200625 3.28632812 1.53125 2.62890625 C0 1 0 1 0 0 Z " fill="#FFFFFF" transform="translate(398,64)"/>
<path d="M0 0 C4.95 0.99 4.95 0.99 10 2 C6.68756695 2.82810826 4.34023421 3.09278428 1 3 C0.67 2.01 0.34 1.02 0 0 Z " fill="#FFFFFF" transform="translate(289,66)"/>
<path d="M0 0 C4.455 0.99 4.455 0.99 9 2 C5 3 5 3 2 3 C2 2.34 2 1.68 2 1 C1.34 0.67 0.68 0.34 0 0 Z " fill="#FFFFFF" transform="translate(218,238)"/>
<path d="M0 0 C4.455 0.99 4.455 0.99 9 2 C9 2.33 9 2.66 9 3 C5.7 2.67 2.4 2.34 -1 2 C-0.67 1.34 -0.34 0.68 0 0 Z " fill="#FFFFFF" transform="translate(292,9)"/>
<path d="M0 0 C0 3 0 3 -1.5 4.6875 C-1.995 5.120625 -2.49 5.55375 -3 6 C-3.66 5.67 -4.32 5.34 -5 5 C-3.35 3.35 -1.7 1.7 0 0 Z " fill="#FFFFFF" transform="translate(268,499)"/>
<path d="M0 0 C0.33 0 0.66 0 1 0 C1 2.97 1 5.94 1 9 C0.67 8.01 0.34 7.02 0 6 C-0.66 5.67 -1.32 5.34 -2 5 C-1.34 5 -0.68 5 0 5 C0 3.35 0 1.7 0 0 Z " fill="#FFFFFF" transform="translate(55,179)"/>
<path d="M0 0 C0.33 0 0.66 0 1 0 C1 3.3 1 6.6 1 10 C0.67 10 0.34 10 0 10 C0 6.7 0 3.4 0 0 Z " fill="#FFFFFF" transform="translate(404,216)"/>
<path d="M0 0 C0.33 0 0.66 0 1 0 C1 3.3 1 6.6 1 10 C0.67 10 0.34 10 0 10 C0 6.7 0 3.4 0 0 Z " fill="#FFFFFF" transform="translate(405,206)"/>
<path d="M0 0 C-3.13498292 1.85776765 -5.37471432 2.20140476 -9 2 C-5.86501708 0.14223235 -3.62528568 -0.20140476 0 0 Z " fill="#FFFFFF" transform="translate(217,10)"/>
<path d="M0 0 C1.98 0.99 1.98 0.99 4 2 C3.67 2.99 3.34 3.98 3 5 C1.5 3.625 1.5 3.625 0 2 C0 1.34 0 0.68 0 0 Z " fill="#FFFFFF" transform="translate(232,404)"/>
<path d="M0 0 C2.97 0.495 2.97 0.495 6 1 C3 3 3 3 1 3 C0.67 2.01 0.34 1.02 0 0 Z " fill="#FFFFFF" transform="translate(199,231)"/>
<path d="M0 0 C0.33 0 0.66 0 1 0 C1 2.97 1 5.94 1 9 C0.67 9 0.34 9 0 9 C0 6.03 0 3.06 0 0 Z " fill="#FFFFFF" transform="translate(404,195)"/>
<path d="M0 0 C0.33 0 0.66 0 1 0 C1 2.64 1 5.28 1 8 C0.67 8 0.34 8 0 8 C0 5.36 0 2.72 0 0 Z " fill="#FFFFFF" transform="translate(110,221)"/>
<path d="M0 0 C0.33 0 0.66 0 1 0 C1 2.64 1 5.28 1 8 C0.67 8 0.34 8 0 8 C0 5.36 0 2.72 0 0 Z " fill="#FFFFFF" transform="translate(164,206)"/>
<path d="M0 0 C0.33 0 0.66 0 1 0 C1 2.64 1 5.28 1 8 C0.67 8 0.34 8 0 8 C0 5.36 0 2.72 0 0 Z " fill="#FFFFFF" transform="translate(403,187)"/>
<path d="M0 0 C0.99 0.33 1.98 0.66 3 1 C1.02 1.66 -0.96 2.32 -3 3 C-2.01 2.01 -1.02 1.02 0 0 Z " fill="#FFFFFF" transform="translate(174,22)"/>
<path d="M0 0 C1.98 0 3.96 0 6 0 C3 2 3 2 0 2 C0 1.34 0 0.68 0 0 Z " fill="#FFFFFF" transform="translate(194,14)"/>
<path d="M0 0 C0.625 1.875 0.625 1.875 1 4 C0.34 4.66 -0.32 5.32 -1 6 C-0.67 4.02 -0.34 2.04 0 0 Z " fill="#FFFFFF" transform="translate(284,286)"/>
<path d="M0 0 C0.33 0 0.66 0 1 0 C1 2.31 1 4.62 1 7 C0.67 7 0.34 7 0 7 C0 4.69 0 2.38 0 0 Z " fill="#FFFFFF" transform="translate(58,244)"/>
<path d="M0 0 C0.625 1.875 0.625 1.875 1 4 C0.34 4.66 -0.32 5.32 -1 6 C-0.67 4.02 -0.34 2.04 0 0 Z " fill="#FFFFFF" transform="translate(299,237)"/>
<path d="M0 0 C0.625 1.875 0.625 1.875 1 4 C0.34 4.66 -0.32 5.32 -1 6 C-0.67 4.02 -0.34 2.04 0 0 Z " fill="#FFFFFF" transform="translate(312,194)"/>
<path d="M0 0 C2.31 0 4.62 0 7 0 C7 0.33 7 0.66 7 1 C4.69 1 2.38 1 0 1 C0 0.67 0 0.34 0 0 Z " fill="#FFFFFF" transform="translate(279,8)"/>
<path d="M0 0 C2.31 0 4.62 0 7 0 C7 0.33 7 0.66 7 1 C4.69 1 2.38 1 0 1 C0 0.67 0 0.34 0 0 Z " fill="#FFFFFF" transform="translate(222,8)"/>
<path d="M0 0 C0 0.99 0 1.98 0 3 C-0.99 3.495 -0.99 3.495 -2 4 C-1.34 2.68 -0.68 1.36 0 0 Z " fill="#FFFFFF" transform="translate(309,374)"/>
<path d="M0 0 C0 0.99 0 1.98 0 3 C-0.99 3.495 -0.99 3.495 -2 4 C-1.34 2.68 -0.68 1.36 0 0 Z " fill="#FFFFFF" transform="translate(354,322)"/>
<path d="M0 0 C0.33 0 0.66 0 1 0 C1 1.98 1 3.96 1 6 C0.67 6 0.34 6 0 6 C0 4.02 0 2.04 0 0 Z " fill="#FFFFFF" transform="translate(458,237)"/>
<path d="M0 0 C0.33 0 0.66 0 1 0 C1 1.98 1 3.96 1 6 C0.67 6 0.34 6 0 6 C0 4.02 0 2.04 0 0 Z " fill="#FFFFFF" transform="translate(459,230)"/>
<path d="M0 0 C0.33 0 0.66 0 1 0 C1 1.98 1 3.96 1 6 C0.67 6 0.34 6 0 6 C0 4.02 0 2.04 0 0 Z " fill="#FFFFFF" transform="translate(111,230)"/>
<path d="M0 0 C0.99 0.33 1.98 0.66 3 1 C1.35 1.33 -0.3 1.66 -2 2 C-1.34 1.34 -0.68 0.68 0 0 Z " fill="#FFFFFF" transform="translate(188,190)"/>
<path d="M0 0 C0.33 0 0.66 0 1 0 C1 1.98 1 3.96 1 6 C0.67 6 0.34 6 0 6 C0 4.02 0 2.04 0 0 Z " fill="#FFFFFF" transform="translate(57,168)"/>
<path d="M0 0 C0.33 0 0.66 0 1 0 C1 1.98 1 3.96 1 6 C0.67 6 0.34 6 0 6 C0 4.02 0 2.04 0 0 Z " fill="#FFFFFF" transform="translate(58,162)"/>
<path d="M0 0 C0.33 1.32 0.66 2.64 1 4 C0.01 4.495 0.01 4.495 -1 5 C-0.67 3.35 -0.34 1.7 0 0 Z " fill="#FFFFFF" transform="translate(120,152)"/>
<path d="M0 0 C0.66 0.66 1.32 1.32 2 2 C1.67 2.99 1.34 3.98 1 5 C0.67 3.35 0.34 1.7 0 0 Z " fill="#FFFFFF" transform="translate(325,145)"/>
<path d="M0 0 C1.98 0 3.96 0 6 0 C6 0.33 6 0.66 6 1 C4.02 1 2.04 1 0 1 C0 0.67 0 0.34 0 0 Z " fill="#FFFFFF" transform="translate(311,137)"/>
<path d="M0 0 C1.98 0.99 1.98 0.99 4 2 C3.01 2 2.02 2 1 2 C0.67 1.34 0.34 0.68 0 0 Z " fill="#FFFFFF" transform="translate(349,95)"/>
<path d="M0 0 C0.99 0.33 1.98 0.66 3 1 C1.35 1.33 -0.3 1.66 -2 2 C-1.34 1.34 -0.68 0.68 0 0 Z " fill="#FFFFFF" transform="translate(206,70)"/>
<path d="M0 0 C1.98 0 3.96 0 6 0 C6 0.33 6 0.66 6 1 C4.02 1 2.04 1 0 1 C0 0.67 0 0.34 0 0 Z " fill="#FFFFFF" transform="translate(224,65)"/>
<path d="M0 0 C1.98 0.99 1.98 0.99 4 2 C3.01 2 2.02 2 1 2 C0.67 1.34 0.34 0.68 0 0 Z " fill="#FFFFFF" transform="translate(388,55)"/>
<path d="M0 0 C0.66 0.33 1.32 0.66 2 1 C1.01 1.66 0.02 2.32 -1 3 C-0.67 2.01 -0.34 1.02 0 0 Z " fill="#FFFFFF" transform="translate(264,426)"/>
<path d="M0 0 C0.33 0 0.66 0 1 0 C1 1.65 1 3.3 1 5 C0.67 5 0.34 5 0 5 C0 3.35 0 1.7 0 0 Z " fill="#FFFFFF" transform="translate(60,254)"/>
<path d="M0 0 C0.33 0 0.66 0 1 0 C1 1.65 1 3.3 1 5 C0.67 5 0.34 5 0 5 C0 3.35 0 1.7 0 0 Z " fill="#FFFFFF" transform="translate(113,241)"/>
<path d="M0 0 C0.33 0 0.66 0 1 0 C1 1.65 1 3.3 1 5 C0.67 5 0.34 5 0 5 C0 3.35 0 1.7 0 0 Z " fill="#FFFFFF" transform="translate(401,238)"/>
<path d="M0 0 C0.33 0 0.66 0 1 0 C1 1.65 1 3.3 1 5 C0.67 5 0.34 5 0 5 C0 3.35 0 1.7 0 0 Z " fill="#FFFFFF" transform="translate(111,184)"/>
<path d="M0 0 C0.33 0 0.66 0 1 0 C1 1.65 1 3.3 1 5 C0.67 5 0.34 5 0 5 C0 3.35 0 1.7 0 0 Z " fill="#FFFFFF" transform="translate(459,180)"/>
<path d="M0 0 C0.33 0 0.66 0 1 0 C1 1.65 1 3.3 1 5 C0.67 5 0.34 5 0 5 C0 3.35 0 1.7 0 0 Z " fill="#FFFFFF" transform="translate(112,179)"/>
<path d="M0 0 C0.99 0.33 1.98 0.66 3 1 C1.68 1.33 0.36 1.66 -1 2 C-0.67 1.34 -0.34 0.68 0 0 Z " fill="#FFFFFF" transform="translate(218,177)"/>
<path d="M0 0 C0.33 0 0.66 0 1 0 C1 1.65 1 3.3 1 5 C0.67 5 0.34 5 0 5 C0 3.35 0 1.7 0 0 Z " fill="#FFFFFF" transform="translate(318,174)"/>
<path d="M0 0 C0.33 0 0.66 0 1 0 C1 1.65 1 3.3 1 5 C0.67 5 0.34 5 0 5 C0 3.35 0 1.7 0 0 Z " fill="#FFFFFF" transform="translate(56,174)"/>
<path d="M0 0 C0.33 0 0.66 0 1 0 C1 1.65 1 3.3 1 5 C0.67 5 0.34 5 0 5 C0 3.35 0 1.7 0 0 Z " fill="#FFFFFF" transform="translate(453,152)"/>
<path d="M0 0 C0.33 0 0.66 0 1 0 C1 1.65 1 3.3 1 5 C0.67 5 0.34 5 0 5 C0 3.35 0 1.7 0 0 Z " fill="#FFFFFF" transform="translate(325,151)"/>
<path d="M0 0 C0.99 0.99 1.98 1.98 3 3 C2.01 2.67 1.02 2.34 0 2 C0 1.34 0 0.68 0 0 Z " fill="#FFFFFF" transform="translate(361,105)"/>
<path d="M0 0 C1.65 0 3.3 0 5 0 C5 0.33 5 0.66 5 1 C3.35 1 1.7 1 0 1 C0 0.67 0 0.34 0 0 Z " fill="#FFFFFF" transform="translate(215,67)"/>
<path d="M0 0 C1.65 0 3.3 0 5 0 C5 0.33 5 0.66 5 1 C3.35 1 1.7 1 0 1 C0 0.67 0 0.34 0 0 Z " fill="#FFFFFF" transform="translate(282,65)"/>
<path d="M0 0 C1.65 0 3.3 0 5 0 C5 0.33 5 0.66 5 1 C3.35 1 1.7 1 0 1 C0 0.67 0 0.34 0 0 Z " fill="#FFFFFF" transform="translate(230,64)"/>
<path d="M0 0 C1.32 0.33 2.64 0.66 4 1 C3.01 1.495 3.01 1.495 2 2 C1.34 1.34 0.68 0.68 0 0 Z " fill="#FFFFFF" transform="translate(342,26)"/>
<path d="M0 0 C1.65 0 3.3 0 5 0 C5 0.33 5 0.66 5 1 C3.35 1 1.7 1 0 1 C0 0.67 0 0.34 0 0 Z " fill="#FFFFFF" transform="translate(301,12)"/>
<path d="M0 0 C1.65 0 3.3 0 5 0 C5 0.33 5 0.66 5 1 C3.35 1 1.7 1 0 1 C0 0.67 0 0.34 0 0 Z " fill="#FFFFFF" transform="translate(203,12)"/>
<path d="M0 0 C1.65 0 3.3 0 5 0 C5 0.33 5 0.66 5 1 C3.35 1 1.7 1 0 1 C0 0.67 0 0.34 0 0 Z " fill="#FFFFFF" transform="translate(286,9)"/>
<path d="M0 0 C1.65 0 3.3 0 5 0 C5 0.33 5 0.66 5 1 C3.35 1 1.7 1 0 1 C0 0.67 0 0.34 0 0 Z " fill="#FFFFFF" transform="translate(217,9)"/>
<path d="M0 0 C0.66 0 1.32 0 2 0 C2 0.66 2 1.32 2 2 C1.34 2 0.68 2 0 2 C0 1.34 0 0.68 0 0 Z " fill="#FFFFFF" transform="translate(200,451)"/>
<path d="M0 0 C0.66 0.66 1.32 1.32 2 2 C1.01 1.67 0.02 1.34 -1 1 C-0.67 0.67 -0.34 0.34 0 0 Z " fill="#FFFFFF" transform="translate(188,434)"/>
<path d="M0 0 C0.66 0.66 1.32 1.32 2 2 C1.01 1.67 0.02 1.34 -1 1 C-0.67 0.67 -0.34 0.34 0 0 Z " fill="#FFFFFF" transform="translate(119,356)"/>
<path d="M0 0 C0 3 0 3 0 3 Z " fill="#FFFFFF" transform="translate(360,315)"/>
<path d="M0 0 C0.66 0 1.32 0 2 0 C2 0.66 2 1.32 2 2 C1.34 2 0.68 2 0 2 C0 1.34 0 0.68 0 0 Z " fill="#FFFFFF" transform="translate(391,262)"/>
<path d="M0 0 C1 4 1 4 1 4 Z " fill="#FFFFFF" transform="translate(399,247)"/>
<path d="M0 0 C1 4 1 4 1 4 Z " fill="#FFFFFF" transform="translate(114,246)"/>
<path d="M0 0 C1 4 1 4 1 4 Z " fill="#FFFFFF" transform="translate(457,243)"/>
<path d="M0 0 C1 4 1 4 1 4 Z " fill="#FFFFFF" transform="translate(400,243)"/>
<path d="M0 0 C1 4 1 4 1 4 Z " fill="#FFFFFF" transform="translate(112,236)"/>
<path d="M0 0 C4 1 4 1 4 1 Z " fill="#FFFFFF" transform="translate(181,225)"/>
<path d="M0 0 C1 4 1 4 1 4 Z " fill="#FFFFFF" transform="translate(310,200)"/>
<path d="M0 0 C0.66 0 1.32 0 2 0 C2 0.66 2 1.32 2 2 C1.34 2 0.68 2 0 2 C0 1.34 0 0.68 0 0 Z " fill="#FFFFFF" transform="translate(52,186)"/>
<path d="M0 0 C1 4 1 4 1 4 Z " fill="#FFFFFF" transform="translate(316,181)"/>
<path d="M0 0 C1 4 1 4 1 4 Z " fill="#FFFFFF" transform="translate(400,174)"/>
<path d="M0 0 C1 4 1 4 1 4 Z " fill="#FFFFFF" transform="translate(456,164)"/>
<path d="M0 0 C1 4 1 4 1 4 Z " fill="#FFFFFF" transform="translate(455,160)"/>
<path d="M0 0 C0.66 0.66 1.32 1.32 2 2 C1.01 1.67 0.02 1.34 -1 1 C-0.67 0.67 -0.34 0.34 0 0 Z " fill="#FFFFFF" transform="translate(283,148)"/>
<path d="M0 0 C0.99 0.33 1.98 0.66 3 1 C2.01 1 1.02 1 0 1 C0 0.67 0 0.34 0 0 Z " fill="#FFFFFF" transform="translate(330,82)"/>
<path d="M0 0 C4 1 4 1 4 1 Z " fill="#FFFFFF" transform="translate(195,74)"/>
<path d="M0 0 C0.99 0.33 1.98 0.66 3 1 C2.01 1 1.02 1 0 1 C0 0.67 0 0.34 0 0 Z " fill="#FFFFFF" transform="translate(371,42)"/>
<path d="M0 0 C4 1 4 1 4 1 Z " fill="#FFFFFF" transform="translate(325,19)"/>
<path d="M0 0 C4 1 4 1 4 1 Z " fill="#FFFFFF" transform="translate(316,16)"/>
<path d="M0 0 C3 1 3 1 3 1 Z " fill="#FFFFFF" transform="translate(259,506)"/>
<path d="M0 0 C3 1 3 1 3 1 Z " fill="#FFFFFF" transform="translate(253,506)"/>
<path d="M0 0 C0.33 0.66 0.66 1.32 1 2 C0.34 1.67 -0.32 1.34 -1 1 C-0.67 0.67 -0.34 0.34 0 0 Z " fill="#FFFFFF" transform="translate(314,447)"/>
<path d="M0 0 C0.33 0.66 0.66 1.32 1 2 C0.34 1.67 -0.32 1.34 -1 1 C-0.67 0.67 -0.34 0.34 0 0 Z " fill="#FFFFFF" transform="translate(330,429)"/>
<path d="M0 0 C0.66 0.66 1.32 1.32 2 2 C1.34 2 0.68 2 0 2 C0 1.34 0 0.68 0 0 Z " fill="#FFFFFF" transform="translate(179,424)"/>
<path d="M0 0 C0.66 0 1.32 0 2 0 C1.67 0.66 1.34 1.32 1 2 C0.67 1.34 0.34 0.68 0 0 Z " fill="#FFFFFF" transform="translate(247,422)"/>
<path d="M0 0 C0.99 0.495 0.99 0.495 2 1 C1.01 1.495 1.01 1.495 0 2 C0 1.34 0 0.68 0 0 Z " fill="#FFFFFF" transform="translate(278,409)"/>
<path d="M0 0 C0.33 0.66 0.66 1.32 1 2 C0.34 1.67 -0.32 1.34 -1 1 C-0.67 0.67 -0.34 0.34 0 0 Z " fill="#FFFFFF" transform="translate(374,379)"/>
<path d="M0 0 C0.66 0 1.32 0 2 0 C1.67 0.66 1.34 1.32 1 2 C0.67 1.34 0.34 0.68 0 0 Z " fill="#FFFFFF" transform="translate(205,374)"/>
<path d="M0 0 C0.33 0.66 0.66 1.32 1 2 C0.34 1.67 -0.32 1.34 -1 1 C-0.67 0.67 -0.34 0.34 0 0 Z " fill="#FFFFFF" transform="translate(383,369)"/>
<path d="M0 0 C0.66 0.66 1.32 1.32 2 2 C1.34 2 0.68 2 0 2 C0 1.34 0 0.68 0 0 Z " fill="#FFFFFF" transform="translate(116,353)"/>
<path d="M0 0 C0.66 0 1.32 0 2 0 C1.67 0.66 1.34 1.32 1 2 C0.67 1.34 0.34 0.68 0 0 Z " fill="#FFFFFF" transform="translate(187,353)"/>
<path d="M0 0 C0.66 0 1.32 0 2 0 C1.67 0.66 1.34 1.32 1 2 C0.67 1.34 0.34 0.68 0 0 Z " fill="#FFFFFF" transform="translate(164,327)"/>
<path d="M0 0 C0.99 0.495 0.99 0.495 2 1 C1.01 1.495 1.01 1.495 0 2 C0 1.34 0 0.68 0 0 Z " fill="#FFFFFF" transform="translate(350,326)"/>
<path d="M0 0 C3 1 3 1 3 1 Z " fill="#FFFFFF" transform="translate(267,307)"/>
<path d="M0 0 C3 1 3 1 3 1 Z " fill="#FFFFFF" transform="translate(270,306)"/>
<path d="M0 0 C3 1 3 1 3 1 Z " fill="#FFFFFF" transform="translate(264,306)"/>
<path d="" fill="#FFFFFF" transform="translate(0,0)"/>
<path d="" fill="#FFFFFF" transform="translate(0,0)"/>
<path d="" fill="#FFFFFF" transform="translate(0,0)"/>
<path d="" fill="#FFFFFF" transform="translate(0,0)"/>
<path d="" fill="#FFFFFF" transform="translate(0,0)"/>
<path d="" fill="#FFFFFF" transform="translate(0,0)"/>
<path d="" fill="#FFFFFF" transform="translate(0,0)"/>
<path d="" fill="#FFFFFF" transform="translate(0,0)"/>
<path d="" fill="#FFFFFF" transform="translate(0,0)"/>
<path d="" fill="#FFFFFF" transform="translate(0,0)"/>
<path d="" fill="#FFFFFF" transform="translate(0,0)"/>
<path d="" fill="#FFFFFF" transform="translate(0,0)"/>
<path d="" fill="#FFFFFF" transform="translate(0,0)"/>
<path d="M0 0 C3 1 3 1 3 1 Z " fill="#FFFFFF" transform="translate(210,235)"/>
<path d="M0 0 C3 1 3 1 3 1 Z " fill="#FFFFFF" transform="translate(205,233)"/>
<path d="" fill="#FFFFFF" transform="translate(0,0)"/>
<path d="M0 0 C3 1 3 1 3 1 Z " fill="#FFFFFF" transform="translate(193,229)"/>
<path d="M0 0 C3 1 3 1 3 1 Z " fill="#FFFFFF" transform="translate(188,227)"/>
<path d="M0 0 C3 1 3 1 3 1 Z " fill="#FFFFFF" transform="translate(185,226)"/>
<path d="M0 0 C3 1 3 1 3 1 Z " fill="#FFFFFF" transform="translate(176,223)"/>
<path d="" fill="#FFFFFF" transform="translate(0,0)"/>
<path d="" fill="#FFFFFF" transform="translate(0,0)"/>
<path d="" fill="#FFFFFF" transform="translate(0,0)"/>
<path d="" fill="#FFFFFF" transform="translate(0,0)"/>
<path d="M0 0 C3 1 3 1 3 1 Z " fill="#FFFFFF" transform="translate(181,193)"/>
<path d="" fill="#FFFFFF" transform="translate(0,0)"/>
<path d="" fill="#FFFFFF" transform="translate(0,0)"/>
<path d="M0 0 C3 1 3 1 3 1 Z " fill="#FFFFFF" transform="translate(197,186)"/>
<path d="M0 0 C3 1 3 1 3 1 Z " fill="#FFFFFF" transform="translate(202,184)"/>
<path d="M0 0 C3 1 3 1 3 1 Z " fill="#FFFFFF" transform="translate(213,179)"/>
<path d="" fill="#FFFFFF" transform="translate(0,0)"/>
<path d="M0 0 C3 1 3 1 3 1 Z " fill="#FFFFFF" transform="translate(250,163)"/>
<path d="" fill="#FFFFFF" transform="translate(0,0)"/>
<path d="" fill="#FFFFFF" transform="translate(0,0)"/>
<path d="" fill="#FFFFFF" transform="translate(0,0)"/>
<path d="M0 0 C3 1 3 1 3 1 Z " fill="#FFFFFF" transform="translate(267,156)"/>
<path d="M0 0 C3 1 3 1 3 1 Z " fill="#FFFFFF" transform="translate(271,154)"/>
<path d="M0 0 C3 1 3 1 3 1 Z " fill="#FFFFFF" transform="translate(287,147)"/>
<path d="M0 0 C3 1 3 1 3 1 Z " fill="#FFFFFF" transform="translate(298,142)"/>
<path d="" fill="#FFFFFF" transform="translate(0,0)"/>
<path d="M0 0 C3 1 3 1 3 1 Z " fill="#FFFFFF" transform="translate(308,138)"/>
<path d="" fill="#FFFFFF" transform="translate(0,0)"/>
<path d="M0 0 C0.33 0.66 0.66 1.32 1 2 C0.34 1.67 -0.32 1.34 -1 1 C-0.67 0.67 -0.34 0.34 0 0 Z " fill="#FFFFFF" transform="translate(162,95)"/>
<path d="M0 0 C0.99 0.495 0.99 0.495 2 1 C1.01 1.495 1.01 1.495 0 2 C0 1.34 0 0.68 0 0 Z " fill="#FFFFFF" transform="translate(316,75)"/>
<path d="M0 0 C3 1 3 1 3 1 Z " fill="#FFFFFF" transform="translate(313,74)"/>
<path d="M0 0 C3 1 3 1 3 1 Z " fill="#FFFFFF" transform="translate(307,72)"/>
<path d="M0 0 C3 1 3 1 3 1 Z " fill="#FFFFFF" transform="translate(201,72)"/>
<path d="M0 0 C3 1 3 1 3 1 Z " fill="#FFFFFF" transform="translate(302,70)"/>
<path d="M0 0 C3 1 3 1 3 1 Z " fill="#FFFFFF" transform="translate(299,69)"/>
<path d="M0 0 C3 1 3 1 3 1 Z " fill="#FFFFFF" transform="translate(209,69)"/>
<path d="M0 0 C3 1 3 1 3 1 Z " fill="#FFFFFF" transform="translate(212,68)"/>
<path d="M0 0 C3 1 3 1 3 1 Z " fill="#FFFFFF" transform="translate(220,66)"/>
<path d="M0 0 C0.66 0 1.32 0 2 0 C1.67 0.66 1.34 1.32 1 2 C0.67 1.34 0.34 0.68 0 0 Z " fill="#FFFFFF" transform="translate(396,62)"/>
<path d="M0 0 C0.99 0.495 0.99 0.495 2 1 C1.01 1.495 1.01 1.495 0 2 C0 1.34 0 0.68 0 0 Z " fill="#FFFFFF" transform="translate(119,58)"/>
<path d="M0 0 C0.66 0.66 1.32 1.32 2 2 C1.34 2 0.68 2 0 2 C0 1.34 0 0.68 0 0 Z " fill="#FFFFFF" transform="translate(148,35)"/>
<path d="M0 0 C3 1 3 1 3 1 Z " fill="#FFFFFF" transform="translate(346,28)"/>
<path d="M0 0 C3 1 3 1 3 1 Z " fill="#FFFFFF" transform="translate(162,28)"/>
<path d="M0 0 C3 1 3 1 3 1 Z " fill="#FFFFFF" transform="translate(166,26)"/>
<path d="M0 0 C3 1 3 1 3 1 Z " fill="#FFFFFF" transform="translate(331,21)"/>
<path d="M0 0 C3 1 3 1 3 1 Z " fill="#FFFFFF" transform="translate(182,19)"/>
<path d="M0 0 C3 1 3 1 3 1 Z " fill="#FFFFFF" transform="translate(322,18)"/>
<path d="M0 0 C3 1 3 1 3 1 Z " fill="#FFFFFF" transform="translate(188,17)"/>
<path d="M0 0 C3 1 3 1 3 1 Z " fill="#FFFFFF" transform="translate(313,15)"/>
<path d="M0 0 C3 1 3 1 3 1 Z " fill="#FFFFFF" transform="translate(310,14)"/>
<path d="M0 0 C3 1 3 1 3 1 Z " fill="#FFFFFF" transform="translate(200,13)"/>
<path d="M0 0 C2 1 2 1 2 1 Z " fill="#FFFFFF" transform="translate(256,507)"/>
<path d="" fill="#FFFFFF" transform="translate(0,0)"/>
<path d="M0 0 C2 1 2 1 2 1 Z " fill="#FFFFFF" transform="translate(239,410)"/>
<path d="M0 0 C2 1 2 1 2 1 Z " fill="#FFFFFF" transform="translate(278,404)"/>
<path d="" fill="#FFFFFF" transform="translate(0,0)"/>
<path d="" fill="#FFFFFF" transform="translate(0,0)"/>
<path d="" fill="#FFFFFF" transform="translate(0,0)"/>
<path d="M0 0 C2 1 2 1 2 1 Z " fill="#FFFFFF" transform="translate(273,305)"/>
<path d="M0 0 C2 1 2 1 2 1 Z " fill="#FFFFFF" transform="translate(250,296)"/>
<path d="" fill="#FFFFFF" transform="translate(0,0)"/>
<path d="" fill="#FFFFFF" transform="translate(0,0)"/>
<path d="" fill="#FFFFFF" transform="translate(0,0)"/>
<path d="" fill="#FFFFFF" transform="translate(0,0)"/>
<path d="" fill="#FFFFFF" transform="translate(0,0)"/>
<path d="" fill="#FFFFFF" transform="translate(0,0)"/>
<path d="" fill="#FFFFFF" transform="translate(0,0)"/>
<path d="" fill="#FFFFFF" transform="translate(0,0)"/>
<path d="" fill="#FFFFFF" transform="translate(0,0)"/>
<path d="M0 0 C2 1 2 1 2 1 Z " fill="#FFFFFF" transform="translate(216,237)"/>
<path d="M0 0 C2 1 2 1 2 1 Z " fill="#FFFFFF" transform="translate(213,236)"/>
<path d="M0 0 C2 1 2 1 2 1 Z " fill="#FFFFFF" transform="translate(208,234)"/>
<path d="M0 0 C2 1 2 1 2 1 Z " fill="#FFFFFF" transform="translate(196,230)"/>
<path d="M0 0 C2 1 2 1 2 1 Z " fill="#FFFFFF" transform="translate(191,228)"/>
<path d="M0 0 C2 1 2 1 2 1 Z " fill="#FFFFFF" transform="translate(179,224)"/>
<path d="M0 0 C2 1 2 1 2 1 Z " fill="#FFFFFF" transform="translate(174,222)"/>
<path d="M0 0 C2 1 2 1 2 1 Z " fill="#FFFFFF" transform="translate(172,221)"/>
<path d="M0 0 C2 1 2 1 2 1 Z " fill="#FFFFFF" transform="translate(170,220)"/>
<path d="" fill="#FFFFFF" transform="translate(0,0)"/>
<path d="M0 0 C2 1 2 1 2 1 Z " fill="#FFFFFF" transform="translate(171,198)"/>
<path d="M0 0 C2 1 2 1 2 1 Z " fill="#FFFFFF" transform="translate(173,197)"/>
<path d="M0 0 C2 1 2 1 2 1 Z " fill="#FFFFFF" transform="translate(175,196)"/>
<path d="M0 0 C2 1 2 1 2 1 Z " fill="#FFFFFF" transform="translate(177,195)"/>
<path d="M0 0 C2 1 2 1 2 1 Z " fill="#FFFFFF" transform="translate(179,194)"/>
<path d="M0 0 C2 1 2 1 2 1 Z " fill="#FFFFFF" transform="translate(184,192)"/>
<path d="M0 0 C2 1 2 1 2 1 Z " fill="#FFFFFF" transform="translate(191,189)"/>
<path d="M0 0 C2 1 2 1 2 1 Z " fill="#FFFFFF" transform="translate(193,188)"/>
<path d="" fill="#FFFFFF" transform="translate(0,0)"/>
<path d="M0 0 C2 1 2 1 2 1 Z " fill="#FFFFFF" transform="translate(200,185)"/>
<path d="M0 0 C2 1 2 1 2 1 Z " fill="#FFFFFF" transform="translate(205,183)"/>
<path d="M0 0 C2 1 2 1 2 1 Z " fill="#FFFFFF" transform="translate(207,182)"/>
<path d="M0 0 C2 1 2 1 2 1 Z " fill="#FFFFFF" transform="translate(209,181)"/>
<path d="M0 0 C2 1 2 1 2 1 Z " fill="#FFFFFF" transform="translate(211,180)"/>
<path d="M0 0 C2 1 2 1 2 1 Z " fill="#FFFFFF" transform="translate(221,176)"/>
<path d="M0 0 C2 1 2 1 2 1 Z " fill="#FFFFFF" transform="translate(223,175)"/>
<path d="M0 0 C2 1 2 1 2 1 Z " fill="#FFFFFF" transform="translate(225,174)"/>
<path d="M0 0 C2 1 2 1 2 1 Z " fill="#FFFFFF" transform="translate(228,173)"/>
<path d="M0 0 C2 1 2 1 2 1 Z " fill="#FFFFFF" transform="translate(239,168)"/>
<path d="M0 0 C2 1 2 1 2 1 Z " fill="#FFFFFF" transform="translate(246,165)"/>
<path d="" fill="#FFFFFF" transform="translate(0,0)"/>
<path d="M0 0 C2 1 2 1 2 1 Z " fill="#FFFFFF" transform="translate(248,164)"/>
<path d="M0 0 C2 1 2 1 2 1 Z " fill="#FFFFFF" transform="translate(254,162)"/>
<path d="M0 0 C2 1 2 1 2 1 Z " fill="#FFFFFF" transform="translate(258,160)"/>
<path d="" fill="#FFFFFF" transform="translate(0,0)"/>
<path d="M0 0 C2 1 2 1 2 1 Z " fill="#FFFFFF" transform="translate(260,159)"/>
<path d="" fill="#FFFFFF" transform="translate(0,0)"/>
<path d="" fill="#FFFFFF" transform="translate(0,0)"/>
<path d="M0 0 C2 1 2 1 2 1 Z " fill="#FFFFFF" transform="translate(274,153)"/>
<path d="" fill="#FFFFFF" transform="translate(0,0)"/>
<path d="M0 0 C2 1 2 1 2 1 Z " fill="#FFFFFF" transform="translate(276,152)"/>
<path d="" fill="#FFFFFF" transform="translate(0,0)"/>
<path d="M0 0 C2 1 2 1 2 1 Z " fill="#FFFFFF" transform="translate(278,151)"/>
<path d="M0 0 C2 1 2 1 2 1 Z " fill="#FFFFFF" transform="translate(280,150)"/>
<path d="" fill="#FFFFFF" transform="translate(0,0)"/>
<path d="M0 0 C2 1 2 1 2 1 Z " fill="#FFFFFF" transform="translate(285,148)"/>
<path d="M0 0 C2 1 2 1 2 1 Z " fill="#FFFFFF" transform="translate(290,146)"/>
<path d="M0 0 C2 1 2 1 2 1 Z " fill="#FFFFFF" transform="translate(292,145)"/>
<path d="M0 0 C2 1 2 1 2 1 Z " fill="#FFFFFF" transform="translate(294,144)"/>
<path d="" fill="#FFFFFF" transform="translate(0,0)"/>
<path d="M0 0 C2 1 2 1 2 1 Z " fill="#FFFFFF" transform="translate(296,143)"/>
<path d="M0 0 C2 1 2 1 2 1 Z " fill="#FFFFFF" transform="translate(301,141)"/>
<path d="M0 0 C2 1 2 1 2 1 Z " fill="#FFFFFF" transform="translate(303,140)"/>
<path d="M0 0 C2 1 2 1 2 1 Z " fill="#FFFFFF" transform="translate(306,139)"/>
<path d="M0 0 C2 1 2 1 2 1 Z " fill="#FFFFFF" transform="translate(317,138)"/>
<path d="" fill="#FFFFFF" transform="translate(0,0)"/>
<path d="" fill="#FFFFFF" transform="translate(0,0)"/>
<path d="" fill="#FFFFFF" transform="translate(0,0)"/>
<path d="" fill="#FFFFFF" transform="translate(0,0)"/>
<path d="" fill="#FFFFFF" transform="translate(0,0)"/>
<path d="" fill="#FFFFFF" transform="translate(0,0)"/>
<path d="M0 0 C2 1 2 1 2 1 Z " fill="#FFFFFF" transform="translate(158,98)"/>
<path d="" fill="#FFFFFF" transform="translate(0,0)"/>
<path d="M0 0 C2 1 2 1 2 1 Z " fill="#FFFFFF" transform="translate(164,93)"/>
<path d="M0 0 C2 1 2 1 2 1 Z " fill="#FFFFFF" transform="translate(342,90)"/>
<path d="M0 0 C2 1 2 1 2 1 Z " fill="#FFFFFF" transform="translate(168,90)"/>
<path d="M0 0 C2 1 2 1 2 1 Z " fill="#FFFFFF" transform="translate(171,88)"/>
<path d="M0 0 C2 1 2 1 2 1 Z " fill="#FFFFFF" transform="translate(336,86)"/>
<path d="M0 0 C2 1 2 1 2 1 Z " fill="#FFFFFF" transform="translate(333,84)"/>
<path d="M0 0 C2 1 2 1 2 1 Z " fill="#FFFFFF" transform="translate(177,84)"/>
<path d="M0 0 C2 1 2 1 2 1 Z " fill="#FFFFFF" transform="translate(180,82)"/>
<path d="M0 0 C2 1 2 1 2 1 Z " fill="#FFFFFF" transform="translate(328,81)"/>
<path d="M0 0 C2 1 2 1 2 1 Z " fill="#FFFFFF" transform="translate(182,81)"/>
<path d="M0 0 C2 1 2 1 2 1 Z " fill="#FFFFFF" transform="translate(326,80)"/>
<path d="M0 0 C2 1 2 1 2 1 Z " fill="#FFFFFF" transform="translate(184,80)"/>
<path d="M0 0 C2 1 2 1 2 1 Z " fill="#FFFFFF" transform="translate(324,79)"/>
<path d="M0 0 C2 1 2 1 2 1 Z " fill="#FFFFFF" transform="translate(186,79)"/>
<path d="M0 0 C2 1 2 1 2 1 Z " fill="#FFFFFF" transform="translate(188,78)"/>
<path d="M0 0 C2 1 2 1 2 1 Z " fill="#FFFFFF" transform="translate(320,77)"/>
<path d="M0 0 C2 1 2 1 2 1 Z " fill="#FFFFFF" transform="translate(318,76)"/>
<path d="M0 0 C2 1 2 1 2 1 Z " fill="#FFFFFF" transform="translate(310,73)"/>
<path d="M0 0 C2 1 2 1 2 1 Z " fill="#FFFFFF" transform="translate(199,73)"/>
<path d="M0 0 C2 1 2 1 2 1 Z " fill="#FFFFFF" transform="translate(305,71)"/>
<path d="M0 0 C2 1 2 1 2 1 Z " fill="#FFFFFF" transform="translate(292,70)"/>
<path d="M0 0 C2 1 2 1 2 1 Z " fill="#FFFFFF" transform="translate(117,60)"/>
<path d="M0 0 C2 1 2 1 2 1 Z " fill="#FFFFFF" transform="translate(383,51)"/>
<path d="M0 0 C2 1 2 1 2 1 Z " fill="#FFFFFF" transform="translate(127,51)"/>
<path d="M0 0 C2 1 2 1 2 1 Z " fill="#FFFFFF" transform="translate(136,44)"/>
<path d="M0 0 C2 1 2 1 2 1 Z " fill="#FFFFFF" transform="translate(139,42)"/>
<path d="M0 0 C2 1 2 1 2 1 Z " fill="#FFFFFF" transform="translate(369,41)"/>
<path d="M0 0 C2 1 2 1 2 1 Z " fill="#FFFFFF" transform="translate(142,40)"/>
<path d="M0 0 C2 1 2 1 2 1 Z " fill="#FFFFFF" transform="translate(366,39)"/>
<path d="M0 0 C2 1 2 1 2 1 Z " fill="#FFFFFF" transform="translate(145,38)"/>
<path d="M0 0 C2 1 2 1 2 1 Z " fill="#FFFFFF" transform="translate(363,37)"/>
<path d="" fill="#FFFFFF" transform="translate(0,0)"/>
<path d="M0 0 C2 1 2 1 2 1 Z " fill="#FFFFFF" transform="translate(150,35)"/>
<path d="M0 0 C2 1 2 1 2 1 Z " fill="#FFFFFF" transform="translate(358,34)"/>
<path d="M0 0 C2 1 2 1 2 1 Z " fill="#FFFFFF" transform="translate(356,33)"/>
<path d="M0 0 C2 1 2 1 2 1 Z " fill="#FFFFFF" transform="translate(153,33)"/>
<path d="M0 0 C2 1 2 1 2 1 Z " fill="#FFFFFF" transform="translate(354,32)"/>
<path d="M0 0 C2 1 2 1 2 1 Z " fill="#FFFFFF" transform="translate(155,32)"/>
<path d="M0 0 C2 1 2 1 2 1 Z " fill="#FFFFFF" transform="translate(351,30)"/>
<path d="M0 0 C2 1 2 1 2 1 Z " fill="#FFFFFF" transform="translate(158,30)"/>
<path d="M0 0 C2 1 2 1 2 1 Z " fill="#FFFFFF" transform="translate(349,29)"/>
<path d="M0 0 C2 1 2 1 2 1 Z " fill="#FFFFFF" transform="translate(160,29)"/>
<path d="M0 0 C2 1 2 1 2 1 Z " fill="#FFFFFF" transform="translate(340,25)"/>
<path d="M0 0 C2 1 2 1 2 1 Z " fill="#FFFFFF" transform="translate(169,25)"/>
<path d="M0 0 C2 1 2 1 2 1 Z " fill="#FFFFFF" transform="translate(338,24)"/>
<path d="M0 0 C2 1 2 1 2 1 Z " fill="#FFFFFF" transform="translate(336,23)"/>
<path d="M0 0 C2 1 2 1 2 1 Z " fill="#FFFFFF" transform="translate(339,22)"/>
<path d="M0 0 C2 1 2 1 2 1 Z " fill="#FFFFFF" transform="translate(334,22)"/>
<path d="M0 0 C2 1 2 1 2 1 Z " fill="#FFFFFF" transform="translate(177,21)"/>
<path d="M0 0 C2 1 2 1 2 1 Z " fill="#FFFFFF" transform="translate(180,20)"/>
<path d="M0 0 C2 1 2 1 2 1 Z " fill="#FFFFFF" transform="translate(186,18)"/>
<path d="M0 0 C2 1 2 1 2 1 Z " fill="#FFFFFF" transform="translate(320,17)"/>
<path d="M0 0 C2 1 2 1 2 1 Z " fill="#FFFFFF" transform="translate(191,16)"/>
<path d="M0 0 C2 1 2 1 2 1 Z " fill="#FFFFFF" transform="translate(307,13)"/>
<path d="" fill="#FFFFFF" transform="translate(0,0)"/>
<path d="" fill="#FFFFFF" transform="translate(0,0)"/>
<path d="" fill="#FFFFFF" transform="translate(0,0)"/>
<path d="" fill="#FFFFFF" transform="translate(0,0)"/>
<path d="" fill="#FFFFFF" transform="translate(0,0)"/>
<path d="" fill="#FFFFFF" transform="translate(0,0)"/>
<path d="" fill="#FFFFFF" transform="translate(0,0)"/>
<path d="" fill="#FFFFFF" transform="translate(0,0)"/>
<path d="" fill="#FFFFFF" transform="translate(0,0)"/>
<path d="" fill="#FFFFFF" transform="translate(0,0)"/>
<path d="" fill="#FFFFFF" transform="translate(0,0)"/>
<path d="" fill="#FFFFFF" transform="translate(0,0)"/>
<path d="" fill="#FFFFFF" transform="translate(0,0)"/>
<path d="" fill="#FFFFFF" transform="translate(0,0)"/>
<path d="" fill="#FFFFFF" transform="translate(0,0)"/>
<path d="" fill="#FFFFFF" transform="translate(0,0)"/>
<path d="" fill="#FFFFFF" transform="translate(0,0)"/>
<path d="" fill="#FFFFFF" transform="translate(0,0)"/>
<path d="" fill="#FFFFFF" transform="translate(0,0)"/>
<path d="" fill="#FFFFFF" transform="translate(0,0)"/>
<path d="" fill="#FFFFFF" transform="translate(0,0)"/>
<path d="" fill="#FFFFFF" transform="translate(0,0)"/>
<path d="" fill="#FFFFFF" transform="translate(0,0)"/>
<path d="" fill="#FFFFFF" transform="translate(0,0)"/>
<path d="" fill="#FFFFFF" transform="translate(0,0)"/>
<path d="" fill="#FFFFFF" transform="translate(0,0)"/>
<path d="" fill="#FFFFFF" transform="translate(0,0)"/>
<path d="" fill="#FFFFFF" transform="translate(0,0)"/>
<path d="" fill="#FFFFFF" transform="translate(0,0)"/>
<path d="" fill="#FFFFFF" transform="translate(0,0)"/>
<path d="" fill="#FFFFFF" transform="translate(0,0)"/>
<path d="" fill="#FFFFFF" transform="translate(0,0)"/>
<path d="" fill="#FFFFFF" transform="translate(0,0)"/>
<path d="" fill="#FFFFFF" transform="translate(0,0)"/>
<path d="" fill="#FFFFFF" transform="translate(0,0)"/>
<path d="" fill="#FFFFFF" transform="translate(0,0)"/>
<path d="" fill="#FFFFFF" transform="translate(0,0)"/>
<path d="" fill="#FFFFFF" transform="translate(0,0)"/>
<path d="" fill="#FFFFFF" transform="translate(0,0)"/>
<path d="" fill="#FFFFFF" transform="translate(0,0)"/>
<path d="" fill="#FFFFFF" transform="translate(0,0)"/>
<path d="" fill="#FFFFFF" transform="translate(0,0)"/>
<path d="" fill="#FFFFFF" transform="translate(0,0)"/>
<path d="" fill="#FFFFFF" transform="translate(0,0)"/>
<path d="" fill="#FFFFFF" transform="translate(0,0)"/>
<path d="" fill="#FFFFFF" transform="translate(0,0)"/>
<path d="" fill="#FFFFFF" transform="translate(0,0)"/>
<path d="" fill="#FFFFFF" transform="translate(0,0)"/>
<path d="" fill="#FFFFFF" transform="translate(0,0)"/>
<path d="" fill="#FFFFFF" transform="translate(0,0)"/>
<path d="" fill="#FFFFFF" transform="translate(0,0)"/>
<path d="" fill="#FFFFFF" transform="translate(0,0)"/>
<path d="" fill="#FFFFFF" transform="translate(0,0)"/>
<path d="" fill="#FFFFFF" transform="translate(0,0)"/>
<path d="" fill="#FFFFFF" transform="translate(0,0)"/>
<path d="" fill="#FFFFFF" transform="translate(0,0)"/>
<path d="" fill="#FFFFFF" transform="translate(0,0)"/>
<path d="" fill="#FFFFFF" transform="translate(0,0)"/>
<path d="" fill="#FFFFFF" transform="translate(0,0)"/>
<path d="" fill="#FFFFFF" transform="translate(0,0)"/>
<path d="" fill="#FFFFFF" transform="translate(0,0)"/>
<path d="" fill="#FFFFFF" transform="translate(0,0)"/>
<path d="" fill="#FFFFFF" transform="translate(0,0)"/>
<path d="" fill="#FFFFFF" transform="translate(0,0)"/>
<path d="" fill="#FFFFFF" transform="translate(0,0)"/>
<path d="" fill="#FFFFFF" transform="translate(0,0)"/>
<path d="" fill="#FFFFFF" transform="translate(0,0)"/>
<path d="" fill="#FFFFFF" transform="translate(0,0)"/>
<path d="" fill="#FFFFFF" transform="translate(0,0)"/>
<path d="" fill="#FFFFFF" transform="translate(0,0)"/>
<path d="" fill="#FFFFFF" transform="translate(0,0)"/>
<path d="" fill="#FFFFFF" transform="translate(0,0)"/>
<path d="" fill="#FFFFFF" transform="translate(0,0)"/>
<path d="" fill="#FFFFFF" transform="translate(0,0)"/>
<path d="" fill="#FFFFFF" transform="translate(0,0)"/>
<path d="" fill="#FFFFFF" transform="translate(0,0)"/>
<path d="" fill="#FFFFFF" transform="translate(0,0)"/>
<path d="" fill="#FFFFFF" transform="translate(0,0)"/>
<path d="" fill="#FFFFFF" transform="translate(0,0)"/>
<path d="" fill="#FFFFFF" transform="translate(0,0)"/>
<path d="" fill="#FFFFFF" transform="translate(0,0)"/>
<path d="" fill="#FFFFFF" transform="translate(0,0)"/>
<path d="" fill="#FFFFFF" transform="translate(0,0)"/>
<path d="" fill="#FFFFFF" transform="translate(0,0)"/>
<path d="" fill="#FFFFFF" transform="translate(0,0)"/>
<path d="" fill="#FFFFFF" transform="translate(0,0)"/>
<path d="" fill="#FFFFFF" transform="translate(0,0)"/>
<path d="" fill="#FFFFFF" transform="translate(0,0)"/>
<path d="" fill="#FFFFFF" transform="translate(0,0)"/>
<path d="" fill="#FFFFFF" transform="translate(0,0)"/>
<path d="" fill="#FFFFFF" transform="translate(0,0)"/>
<path d="" fill="#FFFFFF" transform="translate(0,0)"/>
<path d="" fill="#FFFFFF" transform="translate(0,0)"/>
<path d="" fill="#FFFFFF" transform="translate(0,0)"/>
<path d="" fill="#FFFFFF" transform="translate(0,0)"/>
<path d="" fill="#FFFFFF" transform="translate(0,0)"/>
<path d="" fill="#FFFFFF" transform="translate(0,0)"/>
<path d="" fill="#FFFFFF" transform="translate(0,0)"/>
<path d="" fill="#FFFFFF" transform="translate(0,0)"/>
<path d="" fill="#FFFFFF" transform="translate(0,0)"/>
<path d="" fill="#FFFFFF" transform="translate(0,0)"/>
<path d="" fill="#FFFFFF" transform="translate(0,0)"/>
<path d="" fill="#FFFFFF" transform="translate(0,0)"/>
<path d="" fill="#FFFFFF" transform="translate(0,0)"/>
<path d="" fill="#FFFFFF" transform="translate(0,0)"/>
<path d="" fill="#FFFFFF" transform="translate(0,0)"/>
<path d="" fill="#FFFFFF" transform="translate(0,0)"/>
<path d="" fill="#FFFFFF" transform="translate(0,0)"/>
<path d="" fill="#FFFFFF" transform="translate(0,0)"/>
<path d="" fill="#FFFFFF" transform="translate(0,0)"/>
<path d="" fill="#FFFFFF" transform="translate(0,0)"/>
<path d="" fill="#FFFFFF" transform="translate(0,0)"/>
<path d="" fill="#FFFFFF" transform="translate(0,0)"/>
<path d="" fill="#FFFFFF" transform="translate(0,0)"/>
<path d="" fill="#FFFFFF" transform="translate(0,0)"/>
<path d="" fill="#FFFFFF" transform="translate(0,0)"/>
<path d="" fill="#FFFFFF" transform="translate(0,0)"/>
<path d="" fill="#FFFFFF" transform="translate(0,0)"/>
<path d="" fill="#FFFFFF" transform="translate(0,0)"/>
<path d="" fill="#FFFFFF" transform="translate(0,0)"/>
<path d="" fill="#FFFFFF" transform="translate(0,0)"/>
<path d="" fill="#FFFFFF" transform="translate(0,0)"/>
<path d="" fill="#FFFFFF" transform="translate(0,0)"/>
<path d="" fill="#FFFFFF" transform="translate(0,0)"/>
<path d="" fill="#FFFFFF" transform="translate(0,0)"/>
<path d="" fill="#FFFFFF" transform="translate(0,0)"/>
<path d="" fill="#FFFFFF" transform="translate(0,0)"/>
<path d="" fill="#FFFFFF" transform="translate(0,0)"/>
<path d="" fill="#FFFFFF" transform="translate(0,0)"/>
<path d="" fill="#FFFFFF" transform="translate(0,0)"/>
<path d="" fill="#FFFFFF" transform="translate(0,0)"/>
<path d="" fill="#FFFFFF" transform="translate(0,0)"/>
<path d="" fill="#FFFFFF" transform="translate(0,0)"/>
<path d="" fill="#FFFFFF" transform="translate(0,0)"/>
<path d="" fill="#FFFFFF" transform="translate(0,0)"/>
<path d="" fill="#FFFFFF" transform="translate(0,0)"/>
<path d="" fill="#FFFFFF" transform="translate(0,0)"/>
<path d="" fill="#FFFFFF" transform="translate(0,0)"/>
<path d="" fill="#FFFFFF" transform="translate(0,0)"/>
<path d="" fill="#FFFFFF" transform="translate(0,0)"/>
<path d="" fill="#FFFFFF" transform="translate(0,0)"/>
<path d="" fill="#FFFFFF" transform="translate(0,0)"/>
<path d="" fill="#FFFFFF" transform="translate(0,0)"/>
<path d="" fill="#FFFFFF" transform="translate(0,0)"/>
<path d="" fill="#FFFFFF" transform="translate(0,0)"/>
<path d="" fill="#FFFFFF" transform="translate(0,0)"/>
<path d="" fill="#FFFFFF" transform="translate(0,0)"/>
<path d="" fill="#FFFFFF" transform="translate(0,0)"/>
<path d="" fill="#FFFFFF" transform="translate(0,0)"/>
<path d="" fill="#FFFFFF" transform="translate(0,0)"/>
<path d="" fill="#FFFFFF" transform="translate(0,0)"/>
<path d="" fill="#FFFFFF" transform="translate(0,0)"/>
<path d="" fill="#FFFFFF" transform="translate(0,0)"/>
<path d="" fill="#FFFFFF" transform="translate(0,0)"/>
<path d="" fill="#FFFFFF" transform="translate(0,0)"/>
<path d="" fill="#FFFFFF" transform="translate(0,0)"/>
<path d="" fill="#FFFFFF" transform="translate(0,0)"/>
<path d="" fill="#FFFFFF" transform="translate(0,0)"/>
<path d="" fill="#FFFFFF" transform="translate(0,0)"/>
<path d="" fill="#FFFFFF" transform="translate(0,0)"/>
<path d="" fill="#FFFFFF" transform="translate(0,0)"/>
<path d="" fill="#FFFFFF" transform="translate(0,0)"/>
<path d="" fill="#FFFFFF" transform="translate(0,0)"/>
<path d="" fill="#FFFFFF" transform="translate(0,0)"/>
<path d="" fill="#FFFFFF" transform="translate(0,0)"/>
<path d="" fill="#FFFFFF" transform="translate(0,0)"/>
<path d="" fill="#FFFFFF" transform="translate(0,0)"/>
<path d="" fill="#FFFFFF" transform="translate(0,0)"/>
<path d="" fill="#FFFFFF" transform="translate(0,0)"/>
<path d="" fill="#FFFFFF" transform="translate(0,0)"/>
<path d="" fill="#FFFFFF" transform="translate(0,0)"/>
<path d="" fill="#FFFFFF" transform="translate(0,0)"/>
<path d="" fill="#FFFFFF" transform="translate(0,0)"/>
<path d="" fill="#FFFFFF" transform="translate(0,0)"/>
<path d="" fill="#FFFFFF" transform="translate(0,0)"/>
<path d="" fill="#FFFFFF" transform="translate(0,0)"/>
<path d="" fill="#FFFFFF" transform="translate(0,0)"/>
<path d="" fill="#FFFFFF" transform="translate(0,0)"/>
<path d="" fill="#FFFFFF" transform="translate(0,0)"/>
<path d="" fill="#FFFFFF" transform="translate(0,0)"/>
<path d="" fill="#FFFFFF" transform="translate(0,0)"/>
<path d="" fill="#FFFFFF" transform="translate(0,0)"/>
<path d="" fill="#FFFFFF" transform="translate(0,0)"/>
<path d="" fill="#FFFFFF" transform="translate(0,0)"/>
<path d="" fill="#FFFFFF" transform="translate(0,0)"/>
<path d="" fill="#FFFFFF" transform="translate(0,0)"/>
<path d="" fill="#FFFFFF" transform="translate(0,0)"/>
<path d="" fill="#FFFFFF" transform="translate(0,0)"/>
<path d="" fill="#FFFFFF" transform="translate(0,0)"/>
<path d="" fill="#FFFFFF" transform="translate(0,0)"/>
<path d="" fill="#FFFFFF" transform="translate(0,0)"/>
<path d="" fill="#FFFFFF" transform="translate(0,0)"/>
<path d="" fill="#FFFFFF" transform="translate(0,0)"/>
<path d="" fill="#FFFFFF" transform="translate(0,0)"/>
<path d="" fill="#FFFFFF" transform="translate(0,0)"/>
<path d="" fill="#FFFFFF" transform="translate(0,0)"/>
<path d="" fill="#FFFFFF" transform="translate(0,0)"/>
<path d="" fill="#FFFFFF" transform="translate(0,0)"/>
<path d="" fill="#FFFFFF" transform="translate(0,0)"/>
<path d="" fill="#FFFFFF" transform="translate(0,0)"/>
<path d="" fill="#FFFFFF" transform="translate(0,0)"/>
<path d="" fill="#FFFFFF" transform="translate(0,0)"/>
<path d="" fill="#FFFFFF" transform="translate(0,0)"/>
<path d="" fill="#FFFFFF" transform="translate(0,0)"/>
<path d="" fill="#FFFFFF" transform="translate(0,0)"/>
<path d="" fill="#FFFFFF" transform="translate(0,0)"/>
<path d="" fill="#FFFFFF" transform="translate(0,0)"/>
<path d="" fill="#FFFFFF" transform="translate(0,0)"/>
<path d="" fill="#FFFFFF" transform="translate(0,0)"/>
<path d="" fill="#FFFFFF" transform="translate(0,0)"/>
<path d="" fill="#FFFFFF" transform="translate(0,0)"/>
<path d="" fill="#FFFFFF" transform="translate(0,0)"/>
<path d="" fill="#FFFFFF" transform="translate(0,0)"/>
<path d="" fill="#FFFFFF" transform="translate(0,0)"/>
<path d="" fill="#FFFFFF" transform="translate(0,0)"/>
<path d="" fill="#FFFFFF" transform="translate(0,0)"/>
<path d="" fill="#FFFFFF" transform="translate(0,0)"/>
<path d="" fill="#FFFFFF" transform="translate(0,0)"/>
<path d="" fill="#FFFFFF" transform="translate(0,0)"/>
<path d="" fill="#FFFFFF" transform="translate(0,0)"/>
<path d="" fill="#FFFFFF" transform="translate(0,0)"/>
<path d="" fill="#FFFFFF" transform="translate(0,0)"/>
<path d="" fill="#FFFFFF" transform="translate(0,0)"/>
<path d="" fill="#FFFFFF" transform="translate(0,0)"/>
<path d="" fill="#FFFFFF" transform="translate(0,0)"/>
<path d="" fill="#FFFFFF" transform="translate(0,0)"/>
<path d="" fill="#FFFFFF" transform="translate(0,0)"/>
<path d="" fill="#FFFFFF" transform="translate(0,0)"/>
<path d="" fill="#FFFFFF" transform="translate(0,0)"/>
<path d="" fill="#FFFFFF" transform="translate(0,0)"/>
<path d="" fill="#FFFFFF" transform="translate(0,0)"/>
<path d="" fill="#FFFFFF" transform="translate(0,0)"/>
<path d="" fill="#FFFFFF" transform="translate(0,0)"/>
<path d="" fill="#FFFFFF" transform="translate(0,0)"/>
<path d="" fill="#FFFFFF" transform="translate(0,0)"/>
<path d="" fill="#FFFFFF" transform="translate(0,0)"/>
<path d="" fill="#FFFFFF" transform="translate(0,0)"/>
<path d="" fill="#FFFFFF" transform="translate(0,0)"/>
<path d="" fill="#FFFFFF" transform="translate(0,0)"/>
<path d="" fill="#FFFFFF" transform="translate(0,0)"/>
<path d="" fill="#FFFFFF" transform="translate(0,0)"/>
<path d="" fill="#FFFFFF" transform="translate(0,0)"/>
<path d="" fill="#FFFFFF" transform="translate(0,0)"/>
<path d="" fill="#FFFFFF" transform="translate(0,0)"/>
<path d="" fill="#FFFFFF" transform="translate(0,0)"/>
<path d="" fill="#FFFFFF" transform="translate(0,0)"/>
<path d="" fill="#FFFFFF" transform="translate(0,0)"/>
<path d="" fill="#FFFFFF" transform="translate(0,0)"/>
<path d="" fill="#FFFFFF" transform="translate(0,0)"/>
<path d="" fill="#FFFFFF" transform="translate(0,0)"/>
<path d="" fill="#FFFFFF" transform="translate(0,0)"/>
<path d="" fill="#FFFFFF" transform="translate(0,0)"/>
<path d="" fill="#FFFFFF" transform="translate(0,0)"/>
<path d="" fill="#FFFFFF" transform="translate(0,0)"/>
<path d="" fill="#FFFFFF" transform="translate(0,0)"/>
<path d="" fill="#FFFFFF" transform="translate(0,0)"/>
<path d="" fill="#FFFFFF" transform="translate(0,0)"/>
<path d="" fill="#FFFFFF" transform="translate(0,0)"/>
<path d="" fill="#FFFFFF" transform="translate(0,0)"/>
<path d="" fill="#FFFFFF" transform="translate(0,0)"/>
<path d="" fill="#FFFFFF" transform="translate(0,0)"/>
<path d="" fill="#FFFFFF" transform="translate(0,0)"/>
<path d="" fill="#FFFFFF" transform="translate(0,0)"/>
<path d="" fill="#FFFFFF" transform="translate(0,0)"/>
<path d="" fill="#FFFFFF" transform="translate(0,0)"/>
<path d="" fill="#FFFFFF" transform="translate(0,0)"/>
<path d="" fill="#FFFFFF" transform="translate(0,0)"/>
<path d="" fill="#FFFFFF" transform="translate(0,0)"/>
<path d="" fill="#FFFFFF" transform="translate(0,0)"/>
<path d="" fill="#FFFFFF" transform="translate(0,0)"/>
<path d="" fill="#FFFFFF" transform="translate(0,0)"/>
<path d="" fill="#FFFFFF" transform="translate(0,0)"/>
<path d="" fill="#FFFFFF" transform="translate(0,0)"/>
<path d="" fill="#FFFFFF" transform="translate(0,0)"/>
<path d="" fill="#FFFFFF" transform="translate(0,0)"/>
<path d="" fill="#FFFFFF" transform="translate(0,0)"/>
<path d="" fill="#FFFFFF" transform="translate(0,0)"/>
<path d="" fill="#FFFFFF" transform="translate(0,0)"/>
<path d="" fill="#FFFFFF" transform="translate(0,0)"/>
<path d="" fill="#FFFFFF" transform="translate(0,0)"/>
<path d="" fill="#FFFFFF" transform="translate(0,0)"/>
<path d="" fill="#FFFFFF" transform="translate(0,0)"/>
<path d="" fill="#FFFFFF" transform="translate(0,0)"/>
<path d="" fill="#FFFFFF" transform="translate(0,0)"/>
<path d="" fill="#FFFFFF" transform="translate(0,0)"/>
<path d="" fill="#FFFFFF" transform="translate(0,0)"/>
<path d="" fill="#FFFFFF" transform="translate(0,0)"/>
<path d="" fill="#FFFFFF" transform="translate(0,0)"/>
<path d="" fill="#FFFFFF" transform="translate(0,0)"/>
<path d="" fill="#FFFFFF" transform="translate(0,0)"/>
<path d="" fill="#FFFFFF" transform="translate(0,0)"/>
<path d="" fill="#FFFFFF" transform="translate(0,0)"/>
<path d="" fill="#FFFFFF" transform="translate(0,0)"/>
<path d="" fill="#FFFFFF" transform="translate(0,0)"/>
<path d="" fill="#FFFFFF" transform="translate(0,0)"/>
<path d="" fill="#FFFFFF" transform="translate(0,0)"/>
<path d="" fill="#FFFFFF" transform="translate(0,0)"/>
<path d="" fill="#FFFFFF" transform="translate(0,0)"/>
<path d="" fill="#FFFFFF" transform="translate(0,0)"/>
<path d="" fill="#FFFFFF" transform="translate(0,0)"/>
<path d="" fill="#FFFFFF" transform="translate(0,0)"/>
<path d="" fill="#FFFFFF" transform="translate(0,0)"/>
<path d="" fill="#FFFFFF" transform="translate(0,0)"/>
<path d="" fill="#FFFFFF" transform="translate(0,0)"/>
<path d="" fill="#FFFFFF" transform="translate(0,0)"/>
<path d="" fill="#FFFFFF" transform="translate(0,0)"/>
<path d="" fill="#FFFFFF" transform="translate(0,0)"/>
<path d="" fill="#FFFFFF" transform="translate(0,0)"/>
<path d="" fill="#FFFFFF" transform="translate(0,0)"/>
<path d="" fill="#FFFFFF" transform="translate(0,0)"/>
<path d="" fill="#FFFFFF" transform="translate(0,0)"/>
<path d="" fill="#FFFFFF" transform="translate(0,0)"/>
<path d="" fill="#FFFFFF" transform="translate(0,0)"/>
<path d="" fill="#FFFFFF" transform="translate(0,0)"/>
<path d="" fill="#FFFFFF" transform="translate(0,0)"/>
<path d="" fill="#FFFFFF" transform="translate(0,0)"/>
<path d="" fill="#FFFFFF" transform="translate(0,0)"/>
<path d="" fill="#FFFFFF" transform="translate(0,0)"/>
<path d="" fill="#FFFFFF" transform="translate(0,0)"/>
<path d="" fill="#FFFFFF" transform="translate(0,0)"/>
<path d="" fill="#FFFFFF" transform="translate(0,0)"/>
<path d="" fill="#FFFFFF" transform="translate(0,0)"/>
<path d="" fill="#FFFFFF" transform="translate(0,0)"/>
<path d="" fill="#FFFFFF" transform="translate(0,0)"/>
<path d="" fill="#FFFFFF" transform="translate(0,0)"/>
<path d="" fill="#FFFFFF" transform="translate(0,0)"/>
<path d="" fill="#FFFFFF" transform="translate(0,0)"/>
<path d="" fill="#FFFFFF" transform="translate(0,0)"/>
<path d="" fill="#FFFFFF" transform="translate(0,0)"/>
<path d="" fill="#FFFFFF" transform="translate(0,0)"/>
<path d="" fill="#FFFFFF" transform="translate(0,0)"/>
<path d="" fill="#FFFFFF" transform="translate(0,0)"/>
<path d="" fill="#FFFFFF" transform="translate(0,0)"/>
<path d="" fill="#FFFFFF" transform="translate(0,0)"/>
<path d="" fill="#FFFFFF" transform="translate(0,0)"/>
<path d="" fill="#FFFFFF" transform="translate(0,0)"/>
<path d="" fill="#FFFFFF" transform="translate(0,0)"/>
<path d="" fill="#FFFFFF" transform="translate(0,0)"/>
<path d="" fill="#FFFFFF" transform="translate(0,0)"/>
<path d="" fill="#FFFFFF" transform="translate(0,0)"/>
<path d="" fill="#FFFFFF" transform="translate(0,0)"/>
<path d="" fill="#FFFFFF" transform="translate(0,0)"/>
<path d="" fill="#FFFFFF" transform="translate(0,0)"/>
<path d="" fill="#FFFFFF" transform="translate(0,0)"/>
<path d="" fill="#FFFFFF" transform="translate(0,0)"/>
<path d="" fill="#FFFFFF" transform="translate(0,0)"/>
<path d="" fill="#FFFFFF" transform="translate(0,0)"/>
<path d="" fill="#FFFFFF" transform="translate(0,0)"/>
<path d="" fill="#FFFFFF" transform="translate(0,0)"/>
<path d="" fill="#FFFFFF" transform="translate(0,0)"/>
<path d="" fill="#FFFFFF" transform="translate(0,0)"/>
<path d="" fill="#FFFFFF" transform="translate(0,0)"/>
<path d="" fill="#FFFFFF" transform="translate(0,0)"/>
<path d="" fill="#FFFFFF" transform="translate(0,0)"/>
<path d="" fill="#FFFFFF" transform="translate(0,0)"/>
<path d="" fill="#FFFFFF" transform="translate(0,0)"/>
<path d="" fill="#FFFFFF" transform="translate(0,0)"/>
<path d="" fill="#FFFFFF" transform="translate(0,0)"/>
<path d="" fill="#FFFFFF" transform="translate(0,0)"/>
<path d="" fill="#FFFFFF" transform="translate(0,0)"/>
<path d="" fill="#FFFFFF" transform="translate(0,0)"/>
<path d="" fill="#FFFFFF" transform="translate(0,0)"/>
<path d="" fill="#FFFFFF" transform="translate(0,0)"/>
<path d="" fill="#FFFFFF" transform="translate(0,0)"/>
<path d="" fill="#FFFFFF" transform="translate(0,0)"/>
<path d="" fill="#FFFFFF" transform="translate(0,0)"/>
<path d="" fill="#FFFFFF" transform="translate(0,0)"/>
<path d="" fill="#FFFFFF" transform="translate(0,0)"/>
<path d="" fill="#FFFFFF" transform="translate(0,0)"/>
<path d="" fill="#FFFFFF" transform="translate(0,0)"/>
<path d="" fill="#FFFFFF" transform="translate(0,0)"/>
<path d="" fill="#FFFFFF" transform="translate(0,0)"/>
<path d="" fill="#FFFFFF" transform="translate(0,0)"/>
<path d="" fill="#FFFFFF" transform="translate(0,0)"/>
<path d="" fill="#FFFFFF" transform="translate(0,0)"/>
<path d="" fill="#FFFFFF" transform="translate(0,0)"/>
<path d="" fill="#FFFFFF" transform="translate(0,0)"/>
<path d="" fill="#FFFFFF" transform="translate(0,0)"/>
<path d="" fill="#FFFFFF" transform="translate(0,0)"/>
<path d="" fill="#FFFFFF" transform="translate(0,0)"/>
<path d="" fill="#FFFFFF" transform="translate(0,0)"/>
<path d="" fill="#FFFFFF" transform="translate(0,0)"/>
<path d="" fill="#FFFFFF" transform="translate(0,0)"/>
<path d="" fill="#FFFFFF" transform="translate(0,0)"/>
<path d="" fill="#FFFFFF" transform="translate(0,0)"/>
<path d="" fill="#FFFFFF" transform="translate(0,0)"/>
<path d="" fill="#FFFFFF" transform="translate(0,0)"/>
<path d="" fill="#FFFFFF" transform="translate(0,0)"/>
<path d="" fill="#FFFFFF" transform="translate(0,0)"/>
<path d="" fill="#FFFFFF" transform="translate(0,0)"/>
<path d="" fill="#FFFFFF" transform="translate(0,0)"/>
<path d="" fill="#FFFFFF" transform="translate(0,0)"/>
<path d="" fill="#FFFFFF" transform="translate(0,0)"/>
<path d="" fill="#FFFFFF" transform="translate(0,0)"/>
<path d="" fill="#FFFFFF" transform="translate(0,0)"/>
<path d="" fill="#FFFFFF" transform="translate(0,0)"/>
<path d="" fill="#FFFFFF" transform="translate(0,0)"/>
<path d="" fill="#FFFFFF" transform="translate(0,0)"/>
<path d="" fill="#FFFFFF" transform="translate(0,0)"/>
<path d="" fill="#FFFFFF" transform="translate(0,0)"/>
<path d="" fill="#FFFFFF" transform="translate(0,0)"/>
<path d="" fill="#FFFFFF" transform="translate(0,0)"/>
<path d="" fill="#FFFFFF" transform="translate(0,0)"/>
<path d="" fill="#FFFFFF" transform="translate(0,0)"/>
<path d="" fill="#FFFFFF" transform="translate(0,0)"/>
<path d="" fill="#FFFFFF" transform="translate(0,0)"/>
<path d="" fill="#FFFFFF" transform="translate(0,0)"/>
<path d="" fill="#FFFFFF" transform="translate(0,0)"/>
<path d="" fill="#FFFFFF" transform="translate(0,0)"/>
<path d="" fill="#FFFFFF" transform="translate(0,0)"/>
<path d="" fill="#FFFFFF" transform="translate(0,0)"/>
<path d="" fill="#FFFFFF" transform="translate(0,0)"/>
<path d="" fill="#FFFFFF" transform="translate(0,0)"/>
<path d="" fill="#FFFFFF" transform="translate(0,0)"/>
<path d="" fill="#FFFFFF" transform="translate(0,0)"/>
<path d="" fill="#FFFFFF" transform="translate(0,0)"/>
<path d="" fill="#FFFFFF" transform="translate(0,0)"/>
<path d="" fill="#FFFFFF" transform="translate(0,0)"/>
<path d="" fill="#FFFFFF" transform="translate(0,0)"/>
<path d="" fill="#FFFFFF" transform="translate(0,0)"/>
<path d="" fill="#FFFFFF" transform="translate(0,0)"/>
<path d="" fill="#FFFFFF" transform="translate(0,0)"/>
<path d="" fill="#FFFFFF" transform="translate(0,0)"/>
<path d="" fill="#FFFFFF" transform="translate(0,0)"/>
<path d="" fill="#FFFFFF" transform="translate(0,0)"/>
<path d="" fill="#FFFFFF" transform="translate(0,0)"/>
<path d="" fill="#FFFFFF" transform="translate(0,0)"/>
<path d="" fill="#FFFFFF" transform="translate(0,0)"/>
<path d="" fill="#FFFFFF" transform="translate(0,0)"/>
<path d="" fill="#FFFFFF" transform="translate(0,0)"/>
</svg>
